<svg id="Layer_1" data-name="Layer 1" xmlns="http://www.w3.org/2000/svg" viewBox="0 0 108 31.7"><defs><style>.cls-1{fill:none;}.cls-2{fill:#e40c05;}</style></defs><title>Artboard 1</title><path class="cls-1" d="M27.22,3c-1.16,0-2.2,0-3.18,0-11,0-15,1.81-15,6.91,0,13.9,1.47,19.15,17,19.15h1.1c15.47-.24,16.56-3.42,18.68-16.84a4.42,4.42,0,0,0-1.09-3.68C42.21,5.33,35.3,3.18,27.22,3Z"/><path class="cls-1" d="M84,2.94c-1,0-2,0-3.18,0-8.08.2-15,2.35-17.6,5.49a4.42,4.42,0,0,0-1.09,3.68C64.21,25.58,65.3,28.76,80.77,29h1.1c15.57,0,17-5.25,17-19.15C98.92,4.75,95,2.94,84,2.94Z"/><path class="cls-2" d="M82.23,0C67,.53,59.65,5.93,59.65,5.93a32.78,32.78,0,0,0-11.29,0S41,.53,25.77,0A66,66,0,0,0,.56,4,.88.88,0,0,0,0,4.8V7.4a.88.88,0,0,0,.65.85c1.42.37,4.78,1.9,5.74,8.23C7.8,25.82,9.33,31.7,24.05,31.7s20,0,23.56-13.25C49,13.4,50.56,10.6,54,10.6s5,2.79,6.38,7.84C64,31.66,69.22,31.7,83.95,31.7s16.26-5.88,17.67-15.22c1-6.33,4.31-7.86,5.74-8.23A.88.88,0,0,0,108,7.4V4.8a.88.88,0,0,0-.56-.82A66,66,0,0,0,82.23,0ZM45.91,12.16C43.79,25.58,42.7,28.76,27.23,29h-1.1c-15.57,0-17-5.25-17-19.15,0-5.11,3.92-6.91,15-6.91,1,0,2,0,3.18,0,8.08.2,15,2.35,17.6,5.49A4.42,4.42,0,0,1,45.91,12.16ZM81.87,29h-1.1c-15.47-.24-16.56-3.42-18.68-16.84a4.42,4.42,0,0,1,1.09-3.68C65.79,5.33,72.7,3.18,80.78,3c1.16,0,2.2,0,3.18,0,11,0,15,1.81,15,6.91C98.92,23.76,97.45,29,81.87,29Z"/></svg>