<svg id="Layer_1" data-name="Layer 1" xmlns="http://www.w3.org/2000/svg" xmlns:xlink="http://www.w3.org/1999/xlink" viewBox="0 0 362 262"><defs><style>.cls-1{fill:url(#linear-gradient);}.cls-2{fill:url(#linear-gradient-2);}.cls-3{fill:url(#linear-gradient-3);}.cls-4{fill:none;stroke:#fff;stroke-miterlimit:10;stroke-width:3px;}</style><linearGradient id="linear-gradient" x1="128" y1="61" x2="128" y2="262" gradientUnits="userSpaceOnUse"><stop offset="0" stop-color="#62a169"/><stop offset="1" stop-color="#a9e68a"/></linearGradient><linearGradient id="linear-gradient-2" x1="260.5" y1="-0.79" x2="260.5" y2="159" gradientUnits="userSpaceOnUse"><stop offset="0" stop-color="#749fb5"/><stop offset="1" stop-color="#9cdeff"/></linearGradient><linearGradient id="linear-gradient-3" x1="207.5" y1="61.52" x2="207.5" y2="159" gradientUnits="userSpaceOnUse"><stop offset="0" stop-color="#4a5c4a"/><stop offset="1" stop-color="#232b23"/></linearGradient></defs><title>Artboard 4</title><path class="cls-1" d="M18.12,62H256a0,0,0,0,1,0,0V243.88A18.13,18.13,0,0,1,237.88,262H18.13A18.13,18.13,0,0,1,0,243.88V80.12A18.12,18.12,0,0,1,18.12,62Z"/><path class="cls-2" d="M176.3,0H344.7A17.3,17.3,0,0,1,362,17.3V141.7A17.3,17.3,0,0,1,344.7,159H189.48A30.48,30.48,0,0,1,159,128.52V17.3A17.3,17.3,0,0,1,176.3,0Z"/><path class="cls-3" d="M159,62h78.14A18.86,18.86,0,0,1,256,80.86V159a0,0,0,0,1,0,0H177.86A18.86,18.86,0,0,1,159,140.14V62A0,0,0,0,1,159,62Z"/><path class="cls-4" d="M29.93,89H230.5a0,0,0,0,1,0,0V193.35a0,0,0,0,1,0,0H26.24a0,0,0,0,1,0,0V92.7A3.7,3.7,0,0,1,29.93,89Z"/><path class="cls-4" d="M26.24,193.35h96.1a0,0,0,0,1,0,0V233.1a3.9,3.9,0,0,1-3.9,3.9H29.93a3.7,3.7,0,0,1-3.7-3.7v-40A0,0,0,0,1,26.24,193.35Z"/><line class="cls-4" x1="74.29" y1="89" x2="74.29" y2="193.35"/><line class="cls-4" x1="26.24" y1="110.5" x2="74.29" y2="110.5"/><line class="cls-4" x1="230.5" y1="124" x2="74.29" y2="124"/><path class="cls-4" d="M189.36,23H337.3a3.7,3.7,0,0,1,3.7,3.7V85.3a3.7,3.7,0,0,1-3.7,3.7H185.67a0,0,0,0,1,0,0V26.7A3.7,3.7,0,0,1,189.36,23Z"/><polyline class="cls-4" points="230.5 136.33 297 136.33 297 23"/></svg>