<svg id="Layer_1" data-name="Layer 1" xmlns="http://www.w3.org/2000/svg" xmlns:xlink="http://www.w3.org/1999/xlink" viewBox="0 0 943.33 430.7"><defs><style>.cls-1{fill:#62a169;}.cls-2{fill:#232b23;}.cls-3{fill:#afa33a;}.cls-4{fill:#bdbc9a;}.cls-5{fill:#749fb5;}.cls-6{fill:url(#linear-gradient);}.cls-7{fill:url(#linear-gradient-3);}.cls-8{fill:url(#linear-gradient-4);}.cls-9{fill:url(#linear-gradient-5);}.cls-10{fill:url(#linear-gradient-6);}.cls-11{fill:url(#linear-gradient-7);}.cls-12{fill:url(#linear-gradient-8);}.cls-13{fill:url(#linear-gradient-9);}.cls-14{fill:url(#linear-gradient-10);}.cls-15{fill:url(#linear-gradient-11);}.cls-16{fill:url(#linear-gradient-12);}.cls-17{fill:url(#linear-gradient-13);}.cls-18{fill:url(#linear-gradient-14);}.cls-19{fill:url(#linear-gradient-15);}.cls-20{fill:url(#linear-gradient-16);}.cls-21{fill:url(#linear-gradient-17);}.cls-22{fill:url(#linear-gradient-18);}.cls-23{fill:url(#linear-gradient-19);}.cls-24{fill:url(#linear-gradient-20);}.cls-25{fill:url(#linear-gradient-21);}.cls-26{fill:url(#linear-gradient-22);}.cls-27{fill:url(#linear-gradient-23);}.cls-28{fill:url(#linear-gradient-24);}.cls-29{fill:url(#linear-gradient-25);}.cls-30{fill:url(#linear-gradient-26);}.cls-31{fill:url(#linear-gradient-27);}.cls-32{fill:url(#linear-gradient-28);}.cls-33{fill:url(#linear-gradient-29);}.cls-34{fill:url(#linear-gradient-30);}.cls-35{fill:url(#linear-gradient-31);}.cls-36{fill:url(#linear-gradient-32);}.cls-37{fill:url(#linear-gradient-33);}.cls-38{fill:url(#linear-gradient-34);}.cls-39{fill:url(#linear-gradient-35);}.cls-40{fill:url(#linear-gradient-36);}.cls-41{fill:url(#linear-gradient-37);}.cls-42{fill:url(#linear-gradient-38);}.cls-43{fill:url(#linear-gradient-39);}.cls-44{fill:url(#linear-gradient-40);}.cls-45{fill:url(#linear-gradient-41);}.cls-46{fill:url(#linear-gradient-42);}.cls-47{fill:url(#linear-gradient-43);}.cls-48{fill:url(#linear-gradient-44);}.cls-49{fill:url(#linear-gradient-45);}.cls-50{fill:url(#linear-gradient-46);}.cls-51{fill:#fff;}.cls-52{fill:url(#linear-gradient-47);}.cls-53{fill:url(#linear-gradient-48);}.cls-54{fill:url(#linear-gradient-49);}.cls-55{fill:url(#linear-gradient-50);}.cls-56{fill:url(#linear-gradient-51);}.cls-57,.cls-61{opacity:0.25;}.cls-58{fill:url(#linear-gradient-52);}.cls-59{fill:url(#linear-gradient-53);}.cls-60{fill:url(#linear-gradient-54);}.cls-61,.cls-62{fill:none;stroke-miterlimit:10;stroke-width:3px;}.cls-61{stroke:#000;stroke-linecap:round;}.cls-62{stroke:url(#linear-gradient-55);}.cls-63{fill:url(#linear-gradient-56);}.cls-64{fill:url(#linear-gradient-57);}.cls-65{fill:url(#linear-gradient-58);}.cls-66{fill:url(#linear-gradient-59);}.cls-67{fill:url(#linear-gradient-60);}.cls-68{fill:url(#radial-gradient);}</style><linearGradient id="linear-gradient" x1="695.34" y1="69.78" x2="695.34" y2="390.35" gradientUnits="userSpaceOnUse"><stop offset="0" stop-color="#749fb5"/><stop offset="1" stop-color="#9cdeff"/></linearGradient><linearGradient id="linear-gradient-3" x1="547.19" y1="68.96" x2="547.19" y2="374.03" gradientUnits="userSpaceOnUse"><stop offset="0" stop-color="#bdbc9a"/><stop offset="1" stop-color="#f0efe4"/></linearGradient><linearGradient id="linear-gradient-4" x1="272.11" y1="68.96" x2="272.11" y2="389.25" gradientUnits="userSpaceOnUse"><stop offset="0" stop-color="#62a169"/><stop offset="1" stop-color="#a9e68a"/></linearGradient><linearGradient id="linear-gradient-5" x1="421.29" y1="344.7" x2="421.29" y2="77.37" gradientUnits="userSpaceOnUse"><stop offset="0" stop-color="#4a5c4a"/><stop offset="1" stop-color="#232b23"/></linearGradient><linearGradient id="linear-gradient-6" x1="413.18" y1="68.96" x2="413.18" y2="389.25" gradientUnits="userSpaceOnUse"><stop offset="0" stop-color="#74b57c"/><stop offset="1" stop-color="#95bf75"/></linearGradient><linearGradient id="linear-gradient-7" x1="369.59" y1="214.89" x2="454.12" y2="214.89" gradientUnits="userSpaceOnUse"><stop offset="0" stop-color="#e6e2a1"/><stop offset="1" stop-color="#e0d967"/></linearGradient><linearGradient id="linear-gradient-8" x1="409.72" y1="68.96" x2="409.72" y2="389.25" xlink:href="#linear-gradient-6"/><linearGradient id="linear-gradient-9" x1="369.59" y1="214.55" x2="454.12" y2="214.55" xlink:href="#linear-gradient-7"/><linearGradient id="linear-gradient-10" x1="474.05" y1="253.07" x2="514.11" y2="253.07" xlink:href="#linear-gradient-5"/><linearGradient id="linear-gradient-11" x1="489.78" y1="314.65" x2="498.37" y2="314.65" gradientUnits="userSpaceOnUse"><stop offset="0" stop-color="#82806a"/><stop offset="1" stop-color="#6b6847"/></linearGradient><linearGradient id="linear-gradient-12" x1="489.78" y1="265.94" x2="529.85" y2="265.94" xlink:href="#linear-gradient-5"/><linearGradient id="linear-gradient-13" x1="505.52" y1="327.52" x2="514.11" y2="327.52" xlink:href="#linear-gradient-11"/><linearGradient id="linear-gradient-14" x1="195.05" y1="259.91" x2="240.84" y2="259.91" xlink:href="#linear-gradient-5"/><linearGradient id="linear-gradient-15" x1="213.04" y1="330.28" x2="222.85" y2="330.28" xlink:href="#linear-gradient-11"/><linearGradient id="linear-gradient-16" x1="79.9" y1="270.67" x2="129.24" y2="270.67" xlink:href="#linear-gradient-5"/><linearGradient id="linear-gradient-17" x1="99.29" y1="346.5" x2="109.86" y2="346.5" xlink:href="#linear-gradient-11"/><linearGradient id="linear-gradient-18" x1="309.51" y1="189.03" x2="333.83" y2="189.03" xlink:href="#linear-gradient-5"/><linearGradient id="linear-gradient-19" x1="319.07" y1="230.82" x2="324.28" y2="230.82" xlink:href="#linear-gradient-11"/><linearGradient id="linear-gradient-20" x1="44.82" y1="190.47" x2="69.15" y2="190.47" xlink:href="#linear-gradient-5"/><linearGradient id="linear-gradient-21" x1="54.38" y1="232.25" x2="59.59" y2="232.25" xlink:href="#linear-gradient-11"/><linearGradient id="linear-gradient-22" x1="442.57" y1="187.6" x2="469.75" y2="187.6" xlink:href="#linear-gradient-5"/><linearGradient id="linear-gradient-23" x1="453.25" y1="229.39" x2="459.07" y2="229.39" xlink:href="#linear-gradient-11"/><linearGradient id="linear-gradient-24" x1="395.36" y1="136.82" x2="410.25" y2="136.82" xlink:href="#linear-gradient-5"/><linearGradient id="linear-gradient-25" x1="401.21" y1="159.71" x2="404.4" y2="159.71" xlink:href="#linear-gradient-11"/><linearGradient id="linear-gradient-26" x1="247.99" y1="129.67" x2="262.88" y2="129.67" xlink:href="#linear-gradient-5"/><linearGradient id="linear-gradient-27" x1="253.84" y1="152.56" x2="257.03" y2="152.56" xlink:href="#linear-gradient-11"/><linearGradient id="linear-gradient-28" x1="256.57" y1="142.54" x2="271.47" y2="142.54" xlink:href="#linear-gradient-5"/><linearGradient id="linear-gradient-29" x1="262.42" y1="165.44" x2="265.62" y2="165.44" xlink:href="#linear-gradient-11"/><linearGradient id="linear-gradient-30" x1="335.26" y1="109.64" x2="350.16" y2="109.64" xlink:href="#linear-gradient-5"/><linearGradient id="linear-gradient-31" x1="341.12" y1="132.53" x2="344.31" y2="132.53" xlink:href="#linear-gradient-11"/><linearGradient id="linear-gradient-32" x1="413.96" y1="125.87" x2="425.4" y2="125.87" xlink:href="#linear-gradient-5"/><linearGradient id="linear-gradient-33" x1="418.45" y1="143.47" x2="420.9" y2="143.47" xlink:href="#linear-gradient-11"/><linearGradient id="linear-gradient-34" x1="391.06" y1="84.98" x2="398.22" y2="84.98" xlink:href="#linear-gradient-5"/><linearGradient id="linear-gradient-35" x1="393.87" y1="95.97" x2="395.41" y2="95.97" xlink:href="#linear-gradient-11"/><linearGradient id="linear-gradient-36" x1="262.3" y1="82.11" x2="269.45" y2="82.11" xlink:href="#linear-gradient-5"/><linearGradient id="linear-gradient-37" x1="265.11" y1="93.11" x2="266.64" y2="93.11" xlink:href="#linear-gradient-11"/><linearGradient id="linear-gradient-38" x1="401.08" y1="94.99" x2="408.23" y2="94.99" xlink:href="#linear-gradient-5"/><linearGradient id="linear-gradient-39" x1="403.89" y1="105.99" x2="405.42" y2="105.99" xlink:href="#linear-gradient-11"/><linearGradient id="linear-gradient-40" x1="315.23" y1="72.1" x2="322.39" y2="72.1" xlink:href="#linear-gradient-5"/><linearGradient id="linear-gradient-41" x1="318.04" y1="83.1" x2="319.58" y2="83.1" xlink:href="#linear-gradient-11"/><linearGradient id="linear-gradient-42" x1="423.97" y1="73.53" x2="431.12" y2="73.53" xlink:href="#linear-gradient-5"/><linearGradient id="linear-gradient-43" x1="426.78" y1="84.53" x2="428.31" y2="84.53" xlink:href="#linear-gradient-11"/><linearGradient id="linear-gradient-44" x1="313.8" y1="238.76" x2="353.86" y2="238.76" xlink:href="#linear-gradient-5"/><linearGradient id="linear-gradient-45" x1="329.54" y1="300.34" x2="338.13" y2="300.34" xlink:href="#linear-gradient-11"/><linearGradient id="linear-gradient-46" x1="63.1" y1="57.49" x2="221.47" y2="215.87" xlink:href="#linear-gradient-5"/><linearGradient id="linear-gradient-47" x1="142.5" y1="-10.28" x2="142.5" y2="529.58" xlink:href="#linear-gradient-4"/><linearGradient id="linear-gradient-48" x1="102.38" y1="84.12" x2="182.63" y2="84.12" xlink:href="#linear-gradient-5"/><linearGradient id="linear-gradient-49" x1="107.97" y1="59.76" x2="177.04" y2="59.76" xlink:href="#linear-gradient-5"/><linearGradient id="linear-gradient-50" x1="118.59" y1="33.65" x2="166.42" y2="33.65" xlink:href="#linear-gradient-5"/><linearGradient id="linear-gradient-51" x1="135.4" y1="185.98" x2="149.6" y2="185.98" xlink:href="#linear-gradient-11"/><linearGradient id="linear-gradient-52" x1="546.69" y1="227.46" x2="705.06" y2="385.83" xlink:href="#linear-gradient-5"/><linearGradient id="linear-gradient-53" x1="648.89" y1="66.57" x2="648.89" y2="424.39" gradientTransform="translate(38.67 -62.71) rotate(6.65)" xlink:href="#linear-gradient"/><linearGradient id="linear-gradient-54" x1="623.42" y1="-84.91" x2="623.42" y2="470.52" gradientTransform="translate(38.67 -62.71) rotate(6.65)" xlink:href="#linear-gradient-3"/><linearGradient id="linear-gradient-55" x1="628.87" y1="295.78" x2="631.96" y2="296.49" gradientUnits="userSpaceOnUse"><stop offset="0" stop-color="#fff"/><stop offset="0.27" stop-color="#f6f6f6"/><stop offset="0.72" stop-color="#dfdfdf"/><stop offset="1" stop-color="#ccc"/></linearGradient><linearGradient id="linear-gradient-56" x1="674.15" y1="238.92" x2="733.56" y2="238.92" gradientTransform="matrix(0.48, 0.11, -0.11, 0.46, 323.18, 72.24)" gradientUnits="userSpaceOnUse"><stop offset="0" stop-color="#82321e"/><stop offset="1" stop-color="#903a27"/></linearGradient><linearGradient id="linear-gradient-57" x1="632.26" y1="231.94" x2="682.08" y2="244.96" gradientTransform="matrix(0.48, 0.11, -0.11, 0.46, 323.18, 72.24)" gradientUnits="userSpaceOnUse"><stop offset="0" stop-color="#903a27"/><stop offset="1" stop-color="#9d4330"/></linearGradient><linearGradient id="linear-gradient-58" x1="602.12" y1="219.37" x2="638.57" y2="245.6" gradientTransform="matrix(0.48, 0.11, -0.11, 0.46, 323.18, 72.24)" gradientUnits="userSpaceOnUse"><stop offset="0" stop-color="#9d4330"/><stop offset="1" stop-color="#aa4b39"/></linearGradient><linearGradient id="linear-gradient-59" x1="725.93" y1="245.74" x2="773.32" y2="231.55" gradientTransform="matrix(0.48, 0.11, -0.11, 0.46, 323.18, 72.24)" gradientUnits="userSpaceOnUse"><stop offset="0" stop-color="#752915"/><stop offset="1" stop-color="#82321e"/></linearGradient><linearGradient id="linear-gradient-60" x1="766.75" y1="245.57" x2="811.66" y2="220.02" gradientTransform="matrix(0.48, 0.11, -0.11, 0.46, 323.18, 72.24)" gradientUnits="userSpaceOnUse"><stop offset="0" stop-color="#591b0a"/><stop offset="0.18" stop-color="#611f0d"/><stop offset="0.63" stop-color="#702613"/><stop offset="1" stop-color="#752915"/></linearGradient><radialGradient id="radial-gradient" cx="642.81" cy="237.76" r="3.52" xlink:href="#linear-gradient-55"/></defs><title>Artboard 1</title><path class="cls-1" d="M274.46,138.66c-55.8,0-100.15,54.37-191.72,100.15C58.85,250.76,40.37,265.29,27,281H.47v34.2c-5.48,53,37.26,101.72,118.75,101.72s154.52-25.75,260.39-27.18c13.82-.19,26.63.09,38.63.74V147.1C358.84,146.86,312.11,138.66,274.46,138.66Z"/><path class="cls-1" d="M544.15,137.15a256.4,256.4,0,0,0-30.76,2.94c-11.07,1.71-21.79,3.05-32.19,4.08V397.94c22.57,4.14,42.7,9.33,63,14.36Z"/><path class="cls-2" d="M451.36,146.38c-2.9.14-5.76.25-8.61.35-8.4.29-16.56.4-24.5.37V390.5a489.78,489.78,0,0,1,63,7.44V144.18C470.94,145.19,461,145.91,451.36,146.38Z"/><polygon class="cls-3" points="448.31 393.02 445.64 392.72 445.64 349.7 448.31 349.7 448.31 393.02"/><polygon class="cls-3" points="453.68 393.67 451.01 393.34 451.01 349.7 453.68 349.7 453.68 393.67"/><path class="cls-4" d="M544.15,137.15V412.3l.07,0c34,8.44,68.4,16.4,115.26,18.07l.56,0V167.45C628.6,149.76,592.93,135.54,544.15,137.15Z"/><path class="cls-5" d="M920.44,262.42v19.9c-39.66-34.73-121.94-43.79-174.55-65.68C716,204.2,689.94,184.26,660,167.45V430.4a576.79,576.79,0,0,0,60.81-1.29c181.7-12.88,222.48-43.64,222.48-122.33V262.42Z"/><path class="cls-6" d="M745.89,149.39c-67.56-28.12-115.64-94.63-232.5-76.54a593.84,593.84,0,0,1-62,6.28c-7.11,21.23-5.32,47.4,9.81,81.71,21.46,48.65,80.12,57.23,137.35,103,52.17,41.74,71,69.22,61,123.6a576,576,0,0,0,61.37-1.28c181.7-12.88,222.48-43.64,222.48-122.33S817.28,179.11,745.89,149.39Z"/><path class="cls-6" d="M745.89,149.39c-67.56-28.12-115.64-94.63-232.5-76.54a593.84,593.84,0,0,1-62,6.28c-7.11,21.23-5.32,47.4,9.81,81.71,21.46,48.65,80.12,57.23,137.35,103,52.17,41.74,71,69.22,61,123.6a576,576,0,0,0,61.37-1.28c181.7-12.88,222.48-43.64,222.48-122.33S817.28,179.11,745.89,149.39Z"/><path class="cls-7" d="M598.52,263.85c-57.23-45.78-115.89-54.37-137.35-103-15.13-34.3-16.93-60.48-9.81-81.71-2.9.14-5.76.25-8.61.35-9.06,25.16-26.25,91.31,22.71,135.72,59.43,53.91,78.8,97.13,78.76,154.18,34,8.44,68.4,16.4,115.26,18.07C669.56,333.07,650.69,305.59,598.52,263.85Z"/><path class="cls-8" d="M465.46,215.21c-49-44.41-31.77-110.56-22.71-135.72C371.48,82,317.14,71.42,274.46,71.42c-55.8,0-100.15,54.37-191.72,100.15C-45.39,235.64-18.13,374,119.22,374c81.55,0,154.52-25.75,260.39-27.18,73.83-1,118.9,11.21,164.61,22.55C544.27,312.34,524.9,269.11,465.46,215.21Z"/><path class="cls-9" d="M479.06,328.12a156.53,156.53,0,0,0-14.54-45.57A231.72,231.72,0,0,0,441,245.38c-8.39-11.13-16.91-21.32-24.79-31.42s-15.14-20.09-21-30.64a110.14,110.14,0,0,1-12.46-33.49A115.23,115.23,0,0,1,382,113a191.22,191.22,0,0,1,8.26-33.81q-3.8-.16-7.53-.36a196.55,196.55,0,0,0-14,31.06,132.84,132.84,0,0,0-7,41.76,53.53,53.53,0,0,0,.14,5.43l.3,5.45c.3,3.63.9,7.21,1.37,10.85.7,3.56,1.44,7.14,2.26,10.7,1,3.46,1.89,7,3,10.45,4.49,13.76,10.57,26.64,16.8,38.84s12.66,23.79,18.19,35.09,10.1,22.3,13,33a97.64,97.64,0,0,1,1.68,46.13A489.66,489.66,0,0,1,480.87,355,161.15,161.15,0,0,0,479.06,328.12Z"/><path class="cls-10" d="M375.73,111.73a124.57,124.57,0,0,0-2.86,39.52,122.17,122.17,0,0,0,10.23,38.33c5.33,12.17,12.14,23.62,19.29,34.76s14.68,22,21.65,33.26a214.2,214.2,0,0,1,18.1,35.07A128.62,128.62,0,0,1,451,350.42l2.67.33a131.07,131.07,0,0,0-9.55-58.88,216.14,216.14,0,0,0-18.58-35.23c-7.1-11.2-14.72-22-22-33.09s-14.1-22.37-19.51-34.42a121.27,121.27,0,0,1-10.5-38,124,124,0,0,1,2.5-39.37A195.25,195.25,0,0,1,387,79h0A195.4,195.4,0,0,0,375.73,111.73Z"/><path class="cls-11" d="M375.73,111.73a124.57,124.57,0,0,0-2.86,39.52,122.17,122.17,0,0,0,10.23,38.33c5.33,12.17,12.14,23.62,19.29,34.76s14.68,22,21.65,33.26a214.2,214.2,0,0,1,18.1,35.07A128.62,128.62,0,0,1,451,350.42l2.67.33a131.07,131.07,0,0,0-9.55-58.88,216.14,216.14,0,0,0-18.58-35.23c-7.1-11.2-14.72-22-22-33.09s-14.1-22.37-19.51-34.42a121.27,121.27,0,0,1-10.5-38,124,124,0,0,1,2.5-39.37A195.25,195.25,0,0,1,387,79h0A195.4,195.4,0,0,0,375.73,111.73Z"/><path class="cls-12" d="M448.34,349.74a127.53,127.53,0,0,0,0-19.91,130.43,130.43,0,0,0-9.23-38.57,224.65,224.65,0,0,0-18.32-35.09c-6.94-11.2-14.35-22.08-21.3-33.22S386,200.38,381,188.26a122.09,122.09,0,0,1-9.34-38A125.89,125.89,0,0,1,375,111.18,196.49,196.49,0,0,1,386.32,79h-.05a196.66,196.66,0,0,0-11.59,32.09A126.42,126.42,0,0,0,371,150.3,123,123,0,0,0,380,188.67c4.95,12.25,11.4,23.81,18.27,35s14.18,22.18,21,33.4A222.72,222.72,0,0,1,437.14,292a128.1,128.1,0,0,1,8.73,38,124.93,124.93,0,0,1-.2,19.51c0,.09,0,.19,0,.28l2.67.3C448.32,350,448.33,349.86,448.34,349.74Z"/><path class="cls-13" d="M448.34,349.74a127.53,127.53,0,0,0,0-19.91,130.43,130.43,0,0,0-9.23-38.57,224.65,224.65,0,0,0-18.32-35.09c-6.94-11.2-14.35-22.08-21.3-33.22S386,200.38,381,188.26a122.09,122.09,0,0,1-9.34-38A125.89,125.89,0,0,1,375,111.18,196.49,196.49,0,0,1,386.32,79h-.05a196.66,196.66,0,0,0-11.59,32.09A126.42,126.42,0,0,0,371,150.3,123,123,0,0,0,380,188.67c4.95,12.25,11.4,23.81,18.27,35s14.18,22.18,21,33.4A222.72,222.72,0,0,1,437.14,292a128.1,128.1,0,0,1,8.73,38,124.93,124.93,0,0,1-.2,19.51c0,.09,0,.19,0,.28l2.67.3C448.32,350,448.33,349.86,448.34,349.74Z"/><polygon class="cls-14" points="494.08 202.22 474.05 303.92 514.11 303.92 494.08 202.22"/><rect class="cls-15" x="489.78" y="303.91" width="8.58" height="21.46"/><polygon class="cls-16" points="509.81 215.1 489.78 316.79 529.85 316.79 509.81 215.1"/><rect class="cls-17" x="505.52" y="316.79" width="8.58" height="21.46"/><polygon class="cls-18" points="217.94 201.8 195.05 318.02 240.84 318.02 217.94 201.8"/><rect class="cls-19" x="213.04" y="318.02" width="9.81" height="24.53"/><polygon class="cls-20" points="104.57 208.06 79.91 333.29 129.24 333.29 104.57 208.06"/><rect class="cls-21" x="99.29" y="333.29" width="10.57" height="26.43"/><polygon class="cls-22" points="321.67 154.53 309.51 223.54 333.83 223.54 321.67 154.53"/><rect class="cls-23" x="319.07" y="223.54" width="5.21" height="14.56"/><polygon class="cls-24" points="56.98 155.96 44.82 224.97 69.15 224.97 56.98 155.96"/><rect class="cls-25" x="54.38" y="224.97" width="5.21" height="14.56"/><polygon class="cls-26" points="456.16 153.1 442.57 222.11 469.75 222.11 456.16 153.1"/><rect class="cls-27" x="453.25" y="222.11" width="5.83" height="14.56"/><polygon class="cls-28" points="402.8 117.92 395.36 155.72 410.25 155.72 402.8 117.92"/><rect class="cls-29" x="401.21" y="155.72" width="3.19" height="7.98"/><polygon class="cls-30" points="255.44 110.77 247.99 148.57 262.88 148.57 255.44 110.77"/><rect class="cls-31" x="253.84" y="148.57" width="3.19" height="7.98"/><polygon class="cls-32" points="264.02 123.64 256.57 161.45 271.47 161.45 264.02 123.64"/><rect class="cls-33" x="262.42" y="161.45" width="3.19" height="7.98"/><polygon class="cls-34" points="342.71 90.73 335.26 128.54 350.16 128.54 342.71 90.73"/><rect class="cls-35" x="341.12" y="128.54" width="3.19" height="7.98"/><polygon class="cls-36" points="419.68 111.35 413.95 140.4 425.4 140.4 419.68 111.35"/><rect class="cls-37" x="418.45" y="140.4" width="2.45" height="6.13"/><polygon class="cls-38" points="394.64 75.9 391.06 94.06 398.22 94.06 394.64 75.9"/><rect class="cls-39" x="393.87" y="94.06" width="1.53" height="3.83"/><polygon class="cls-40" points="265.87 73.03 262.3 91.19 269.45 91.19 265.87 73.03"/><rect class="cls-41" x="265.11" y="91.19" width="1.53" height="3.83"/><polygon class="cls-42" points="404.65 85.91 401.08 104.07 408.23 104.07 404.65 85.91"/><rect class="cls-43" x="403.89" y="104.07" width="1.53" height="3.83"/><polygon class="cls-44" points="318.81 63.02 315.23 81.18 322.39 81.18 318.81 63.02"/><rect class="cls-45" x="318.04" y="81.18" width="1.53" height="3.83"/><polygon class="cls-46" points="427.55 64.45 423.97 82.61 431.12 82.61 427.55 64.45"/><rect class="cls-47" x="426.78" y="82.61" width="1.53" height="3.83"/><polygon class="cls-48" points="333.83 187.91 313.8 289.61 353.86 289.61 333.83 187.91"/><rect class="cls-49" x="329.54" y="289.61" width="8.58" height="21.46"/><circle class="cls-50" cx="142.5" cy="136.9" r="111.99"/><path class="cls-51" d="M142.5,35.38A101.5,101.5,0,0,0,41,135c56.42-32.59,101.32-65.51,141.6-91.34A101.17,101.17,0,0,0,142.5,35.38Z"/><path class="cls-52" d="M142.5,238.42a101.53,101.53,0,0,0,40.13-194.8C142.35,69.47,97.45,102.39,41,135c0,.64,0,1.28,0,1.93A101.52,101.52,0,0,0,142.5,238.42Z"/><polygon class="cls-53" points="142.5 0 102.38 168.23 182.63 168.23 142.5 0"/><polygon class="cls-54" points="142.5 0 107.97 119.52 177.03 119.52 142.5 0"/><polygon class="cls-55" points="142.5 0 118.59 67.3 166.42 67.3 142.5 0"/><rect class="cls-56" x="135.4" y="168.23" width="14.2" height="35.5"/><polygon class="cls-57" points="114 119.52 174.38 133.65 171.01 119.52 114 119.52"/><polygon class="cls-57" points="123.06 67.3 164.32 75.51 161.95 67.3 123.06 67.3"/><polygon class="cls-57" points="135.4 172.76 149.6 176.58 149.6 168.23 135.4 168.23 135.4 172.76"/><circle class="cls-58" cx="626.09" cy="306.87" r="111.99"/><path class="cls-59" d="M717.35,351.34A101.51,101.51,0,0,0,580,216.44c25.1,18.4,51.13,39.09,76.4,64.63S702.07,329.49,717.35,351.34Z"/><path class="cls-60" d="M525.28,295.1a101.51,101.51,0,0,0,192.08,56.25c-15.29-21.85-35.63-44.61-61-70.27s-51.3-46.23-76.4-64.63A101.4,101.4,0,0,0,525.28,295.1Z"/><line class="cls-61" x1="617.03" y1="353.74" x2="698.41" y2="378.06"/><line class="cls-62" x1="643.8" y1="238.53" x2="617.03" y2="353.74"/><path class="cls-63" d="M643.45,239.85s-13.81,4-23.92,38.12a22.39,22.39,0,0,1,28.77,6.62C654.1,249.52,643.45,239.85,643.45,239.85Z"/><path class="cls-64" d="M643.45,239.85s-38.42-1.62-52.84,31.5A22.4,22.4,0,0,1,619.47,278l.06,0C629.64,243.89,643.45,239.85,643.45,239.85Z"/><path class="cls-65" d="M643.45,239.85c-31.35-7.22-62.43,3.22-81.89,24.58l.2.28a22.4,22.4,0,0,1,28.86,6.64C605,238.23,643.45,239.85,643.45,239.85Z"/><path class="cls-66" d="M643.45,239.85s10.65,9.67,4.85,44.74l0,.05a22.4,22.4,0,0,1,28.86,6.64C678.7,255.19,643.45,239.85,643.45,239.85Z"/><path class="cls-67" d="M643.45,239.85s35.26,15.34,33.74,51.43a22.4,22.4,0,0,1,28.86,6.64l.3-.17C698.19,270,674.8,247.07,643.45,239.85Z"/><circle class="cls-68" cx="643.8" cy="238.53" r="2.38"/></svg>