<svg id="Layer_1" data-name="Layer 1" xmlns="http://www.w3.org/2000/svg" xmlns:xlink="http://www.w3.org/1999/xlink" viewBox="0 0 362 262"><defs><style>.cls-1{fill:url(#linear-gradient);}.cls-2{fill:url(#linear-gradient-2);}.cls-3{fill:url(#linear-gradient-3);}.cls-4{opacity:0.25;}.cls-5{fill:url(#linear-gradient-4);}.cls-6{opacity:0.2;}.cls-7{fill:url(#linear-gradient-5);}.cls-8{fill:url(#linear-gradient-6);}.cls-9{fill:url(#linear-gradient-7);}.cls-10{fill:url(#linear-gradient-8);}.cls-11{fill:url(#linear-gradient-9);}.cls-12{fill:url(#linear-gradient-10);}.cls-13{fill:url(#linear-gradient-11);}.cls-14{fill:url(#linear-gradient-12);}.cls-15{fill:url(#linear-gradient-13);}.cls-16{fill:none;}</style><linearGradient id="linear-gradient" x1="181" y1="24.73" x2="181" y2="126.45" gradientUnits="userSpaceOnUse"><stop offset="0" stop-color="#749fb5"/><stop offset="1" stop-color="#9cdeff"/></linearGradient><linearGradient id="linear-gradient-2" x1="181" y1="108.73" x2="181" y2="240.39" gradientUnits="userSpaceOnUse"><stop offset="0" stop-color="#62a169"/><stop offset="1" stop-color="#a9e68a"/></linearGradient><linearGradient id="linear-gradient-3" x1="264.49" y1="182.85" x2="97.51" y2="182.85" gradientUnits="userSpaceOnUse"><stop offset="0" stop-color="#2e1008"/><stop offset="0.03" stop-color="#4e1c0f"/><stop offset="0.03" stop-color="#4f1c0f"/><stop offset="0.5" stop-color="#713022"/><stop offset="0.58" stop-color="#873c2e"/><stop offset="0.94" stop-color="#873c2e"/><stop offset="1" stop-color="#ad4e3c"/></linearGradient><linearGradient id="linear-gradient-4" x1="264.49" y1="175.35" x2="97.51" y2="175.35" gradientUnits="userSpaceOnUse"><stop offset="0" stop-color="#752915"/><stop offset="0.63" stop-color="#953e2b"/><stop offset="1" stop-color="#aa4b39"/></linearGradient><linearGradient id="linear-gradient-5" x1="232.33" y1="99.46" x2="129.67" y2="99.46" gradientUnits="userSpaceOnUse"><stop offset="0" stop-color="#4f1c0f"/><stop offset="0.42" stop-color="#743021"/><stop offset="1" stop-color="#ad4e3c"/></linearGradient><linearGradient id="linear-gradient-6" x1="195" y1="13.79" x2="167" y2="13.79" xlink:href="#linear-gradient-4"/><linearGradient id="linear-gradient-7" x1="192.74" y1="13.79" x2="169.26" y2="13.79" gradientUnits="userSpaceOnUse"><stop offset="0" stop-color="#752915"/><stop offset="0.72" stop-color="#551f14"/><stop offset="1" stop-color="#471b13"/></linearGradient><linearGradient id="linear-gradient-8" x1="232.33" y1="62.24" x2="129.67" y2="62.24" xlink:href="#linear-gradient-5"/><linearGradient id="linear-gradient-9" x1="232.33" y1="155.05" x2="149.66" y2="155.05" gradientUnits="userSpaceOnUse"><stop offset="0" stop-color="#c2c2c2"/><stop offset="0.63" stop-color="#e7e7e7"/><stop offset="1" stop-color="#fff"/></linearGradient><linearGradient id="linear-gradient-10" x1="232.33" y1="125.61" x2="150.65" y2="125.61" xlink:href="#linear-gradient-9"/><linearGradient id="linear-gradient-11" x1="217.66" y1="62.24" x2="158.62" y2="62.24" xlink:href="#linear-gradient-9"/><linearGradient id="linear-gradient-12" x1="217.66" y1="40.79" x2="159.33" y2="40.79" xlink:href="#linear-gradient-9"/><linearGradient id="linear-gradient-13" x1="334.5" y1="218.26" x2="208.5" y2="218.26" xlink:href="#linear-gradient-9"/></defs><title>Artboard 6</title><path class="cls-1" d="M322,190.71c0,77.87-63.13,50.5-141,50.5S40,268.58,40,190.71a141,141,0,0,1,282,0Z"/><path class="cls-2" d="M63.48,112.79A140.33,140.33,0,0,0,40,190.71c0,77.87,63.13,50.5,141,50.5s141,27.37,141-50.5a140.33,140.33,0,0,0-23.48-77.92Z"/><path class="cls-3" d="M264.44,179.54h0v-6.8H250.61l-68.4-23.53a3.71,3.71,0,0,0-2.42,0l-68.4,23.53H97.51v6.8h.05a3.67,3.67,0,0,0,2.2,4l74,31.64a18.3,18.3,0,0,0,14.38,0l74-31.64A3.67,3.67,0,0,0,264.44,179.54Z"/><path class="cls-4" d="M321.56,179.68l-7.79-3.29a3.8,3.8,0,0,0-2.4-6.13l-82-12.25-50.57,51v7.64s10.7,3.1,16.2,5.1,7.5,2,13.5-.5l14.38-6.07h96.25c1.88-6.7,2.86-14.79,2.86-24.51Q322,185.14,321.56,179.68Z"/><path class="cls-5" d="M262,169.16l-79.78-27.45a3.71,3.71,0,0,0-2.42,0L100,169.16a3.71,3.71,0,0,0-.25,6.93l74,31.64a18.3,18.3,0,0,0,14.38,0l74-31.64A3.71,3.71,0,0,0,262,169.16Z"/><path class="cls-6" d="M262,169.16l-53.86-18.53-64.09,30,65,18.19,53.23-22.74A3.71,3.71,0,0,0,262,169.16Z"/><path class="cls-7" d="M231.87,168.52,195,13.79H167L130.14,168.52a4.6,4.6,0,0,0-.46,1.95c0,8.1,23,14.67,51.33,14.67s51.33-6.57,51.33-14.67A4.6,4.6,0,0,0,231.87,168.52Z"/><ellipse class="cls-8" cx="181" cy="13.79" rx="14" ry="4"/><ellipse class="cls-9" cx="181" cy="13.79" rx="11.74" ry="2.75"/><path class="cls-4" d="M169.77,13a1.08,1.08,0,0,0-.52.81c0,1.52,5.26,2.75,11.74,2.75a33.59,33.59,0,0,0,9.52-1.14Z"/><path class="cls-10" d="M207.59,66.65l-2.88-12.08A103.78,103.78,0,0,1,181,57.06a103.78,103.78,0,0,1-23.71-2.49l-2.88,12.08c6.68,2,16.12,3.27,26.59,3.27S200.91,68.66,207.59,66.65Z"/><path class="cls-11" d="M229.36,158l-3.73-15.67c-8.83,4.43-25.5,7.42-44.63,7.42s-35.8-3-44.63-7.42L132.64,158c7.08,5.68,26.05,9.75,48.36,9.75S222.28,163.69,229.36,158Z"/><path class="cls-12" d="M222.88,130.81l-4-16.59C209.54,117.16,196,119,181,119s-28.54-1.85-37.93-4.79l-4,16.59c9.3,3.75,24.58,6.2,41.88,6.2S213.58,134.56,222.88,130.81Z"/><path class="cls-13" d="M207.59,66.65l-2.88-12.08A103.78,103.78,0,0,1,181,57.06a103.78,103.78,0,0,1-23.71-2.49l-2.88,12.08c6.68,2,16.12,3.27,26.59,3.27S200.91,68.66,207.59,66.65Z"/><path class="cls-14" d="M202.65,45.93l-2.93-12.3A113.32,113.32,0,0,1,181,35.1a113.32,113.32,0,0,1-18.72-1.47l-2.93,12.3A108,108,0,0,0,181,48,108,108,0,0,0,202.65,45.93Z"/><path class="cls-15" d="M222.88,215.22l-14.38,6.07C214.49,218.79,222.87,215.22,222.88,215.22Z"/><line class="cls-16" x1="222.88" y1="215.22" x2="222.88" y2="215.22"/></svg>