<svg id="Layer_1" data-name="Layer 1" xmlns="http://www.w3.org/2000/svg" xmlns:xlink="http://www.w3.org/1999/xlink" viewBox="0 0 362 262"><defs><style>.cls-1{fill:url(#linear-gradient);}.cls-2{fill:url(#radial-gradient);}.cls-3{fill:url(#linear-gradient-2);}.cls-4{fill:url(#linear-gradient-3);}.cls-5{fill:url(#linear-gradient-4);}.cls-6{fill:url(#linear-gradient-5);}.cls-7{fill:url(#linear-gradient-6);}.cls-8{fill:url(#linear-gradient-7);}.cls-9{fill:url(#linear-gradient-8);}.cls-10{fill:url(#linear-gradient-9);}.cls-11{fill:url(#linear-gradient-10);}.cls-12{fill:url(#linear-gradient-11);}.cls-13{fill:url(#linear-gradient-12);}.cls-14{fill:url(#linear-gradient-13);}.cls-15{fill:url(#linear-gradient-14);}.cls-16{fill:url(#linear-gradient-15);}.cls-17{fill:url(#linear-gradient-16);}.cls-18{fill:url(#linear-gradient-17);}.cls-19{fill:url(#linear-gradient-18);}.cls-20{fill:url(#linear-gradient-19);}.cls-21{fill:url(#linear-gradient-20);}.cls-22{fill:url(#linear-gradient-21);}.cls-23{fill:url(#linear-gradient-22);}.cls-24{fill:url(#linear-gradient-23);}.cls-25{fill:url(#linear-gradient-24);}.cls-26{fill:url(#linear-gradient-25);}.cls-27{fill:url(#linear-gradient-26);}.cls-28{fill:url(#linear-gradient-27);}.cls-29,.cls-31{fill:none;stroke-miterlimit:10;}.cls-29{stroke-width:5px;stroke:url(#linear-gradient-28);}.cls-30{fill:url(#linear-gradient-29);}.cls-31{stroke:#fff;stroke-width:2px;}.cls-32{fill:#fff;}</style><linearGradient id="linear-gradient" x1="58.25" y1="108.83" x2="248.75" y2="134.89" gradientUnits="userSpaceOnUse"><stop offset="0" stop-color="#749fb5"/><stop offset="1" stop-color="#9cdeff"/></linearGradient><radialGradient id="radial-gradient" cx="254.02" cy="120.2" r="56.67" gradientUnits="userSpaceOnUse"><stop offset="0" stop-color="#ffffbf"/><stop offset="0.36" stop-color="#ffffbd"/><stop offset="0.55" stop-color="#fffeb5"/><stop offset="0.69" stop-color="#fefca7"/><stop offset="0.82" stop-color="#fdf994"/><stop offset="0.94" stop-color="#fdf57c"/><stop offset="1" stop-color="#fcf36a"/></radialGradient><linearGradient id="linear-gradient-2" x1="180.99" y1="101.51" x2="180.99" y2="239.2" gradientUnits="userSpaceOnUse"><stop offset="0" stop-color="#62a169"/><stop offset="1" stop-color="#a9e68a"/></linearGradient><linearGradient id="linear-gradient-3" x1="115.23" y1="196.96" x2="207.7" y2="74.45" gradientUnits="userSpaceOnUse"><stop offset="0" stop-color="#4a5c4a"/><stop offset="1" stop-color="#232b23"/></linearGradient><linearGradient id="linear-gradient-4" x1="103.58" y1="216.94" x2="253.52" y2="101.42" gradientUnits="userSpaceOnUse"><stop offset="0" stop-color="#e6e2a1"/><stop offset="1" stop-color="#e0d967"/></linearGradient><linearGradient id="linear-gradient-5" x1="98.8" y1="210.73" x2="248.74" y2="95.22" xlink:href="#linear-gradient-4"/><linearGradient id="linear-gradient-6" x1="305.93" y1="119.6" x2="333.11" y2="119.6" xlink:href="#linear-gradient-3"/><linearGradient id="linear-gradient-7" x1="316.61" y1="161.39" x2="322.43" y2="161.39" gradientUnits="userSpaceOnUse"><stop offset="0" stop-color="#82806a"/><stop offset="1" stop-color="#6b6847"/></linearGradient><linearGradient id="linear-gradient-8" x1="74.06" y1="102.91" x2="101.25" y2="102.91" xlink:href="#linear-gradient-3"/><linearGradient id="linear-gradient-9" x1="84.74" y1="144.7" x2="90.57" y2="144.7" xlink:href="#linear-gradient-7"/><linearGradient id="linear-gradient-10" x1="281.37" y1="128.93" x2="321.43" y2="128.93" xlink:href="#linear-gradient-3"/><linearGradient id="linear-gradient-11" x1="297.11" y1="190.51" x2="305.69" y2="190.51" xlink:href="#linear-gradient-7"/><linearGradient id="linear-gradient-12" x1="215.47" y1="141.84" x2="259.3" y2="141.84" xlink:href="#linear-gradient-3"/><linearGradient id="linear-gradient-13" x1="232.69" y1="209.22" x2="242.08" y2="209.22" xlink:href="#linear-gradient-7"/><linearGradient id="linear-gradient-14" x1="25.36" y1="98.75" x2="65.24" y2="98.75" xlink:href="#linear-gradient-3"/><linearGradient id="linear-gradient-15" x1="41.03" y1="160.06" x2="49.57" y2="160.06" xlink:href="#linear-gradient-7"/><linearGradient id="linear-gradient-16" x1="269.89" y1="97.28" x2="277.04" y2="97.28" xlink:href="#linear-gradient-3"/><linearGradient id="linear-gradient-17" x1="272.7" y1="108.28" x2="274.23" y2="108.28" xlink:href="#linear-gradient-7"/><linearGradient id="linear-gradient-18" x1="200.01" y1="95.32" x2="207.16" y2="95.32" xlink:href="#linear-gradient-3"/><linearGradient id="linear-gradient-19" x1="202.82" y1="106.31" x2="204.35" y2="106.31" xlink:href="#linear-gradient-7"/><linearGradient id="linear-gradient-20" x1="220.01" y1="91.98" x2="225.69" y2="91.98" xlink:href="#linear-gradient-3"/><linearGradient id="linear-gradient-21" x1="222.24" y1="100.71" x2="223.46" y2="100.71" xlink:href="#linear-gradient-7"/><linearGradient id="linear-gradient-22" x1="272.91" y1="102" x2="287.8" y2="102" xlink:href="#linear-gradient-3"/><linearGradient id="linear-gradient-23" x1="278.76" y1="124.89" x2="281.95" y2="124.89" xlink:href="#linear-gradient-7"/><linearGradient id="linear-gradient-24" x1="165.86" y1="97.23" x2="179.63" y2="97.23" xlink:href="#linear-gradient-3"/><linearGradient id="linear-gradient-25" x1="171.27" y1="118.4" x2="174.22" y2="118.4" xlink:href="#linear-gradient-7"/><linearGradient id="linear-gradient-26" x1="154.58" y1="99.01" x2="169.47" y2="99.01" xlink:href="#linear-gradient-3"/><linearGradient id="linear-gradient-27" x1="160.43" y1="121.91" x2="163.62" y2="121.91" xlink:href="#linear-gradient-7"/><linearGradient id="linear-gradient-28" x1="118.47" y1="170.1" x2="123.47" y2="170.1" gradientUnits="userSpaceOnUse"><stop offset="0" stop-color="#fff"/><stop offset="0.27" stop-color="#f6f6f6"/><stop offset="0.72" stop-color="#dfdfdf"/><stop offset="1" stop-color="#ccc"/></linearGradient><linearGradient id="linear-gradient-29" x1="182.44" y1="54.91" x2="95.94" y2="116.17" gradientTransform="translate(-20.41 -5.61)" gradientUnits="userSpaceOnUse"><stop offset="0" stop-color="#752915"/><stop offset="0.63" stop-color="#953e2b"/><stop offset="1" stop-color="#aa4b39"/></linearGradient></defs><title>Artboard 2</title><path class="cls-1" d="M10,126.2c0-46,41-83,113-74s134.5-51.5,194,4c79.49,74.15,11.5,196.5-85,181-33.81-5.43-68.37-32.27-129-26C45,217.2,10,182.72,10,126.2Z"/><circle class="cls-2" cx="254.02" cy="120.2" r="56.67"/><path class="cls-3" d="M15.18,99.2a71.64,71.64,0,0,0-5.15,27c0,56.52,35,91,93,85,60.63-6.27,95.19,20.57,129,26,79.37,12.75,139.44-67.76,114-138Z"/><path class="cls-4" d="M262,99.2H244L34.92,192.28h0c16,14.84,39.19,21.91,68.1,18.92,32-3.31,56.76,2.61,78,9.74h0Z"/><path class="cls-5" d="M252.66,99.2,109.52,210.65c2.15-.14,4.26-.24,6.35-.3L252.78,99.2Z"/><path class="cls-6" d="M95.79,211.74q39.17-28,78.32-56.33L251.36,99.2h-.19L172,154.08q-41.18,28.65-82.42,57.79Q92.61,211.89,95.79,211.74Z"/><polygon class="cls-7" points="319.52 85.1 305.93 154.1 333.11 154.1 319.52 85.1"/><rect class="cls-8" x="316.61" y="154.11" width="5.83" height="14.56"/><polygon class="cls-9" points="87.65 68.41 74.06 137.41 101.25 137.41 87.65 68.41"/><rect class="cls-10" x="84.74" y="137.41" width="5.83" height="14.56"/><polygon class="cls-11" points="301.4 78.09 281.37 179.78 321.43 179.78 301.4 78.09"/><rect class="cls-12" x="297.11" y="179.78" width="8.58" height="21.46"/><polygon class="cls-13" points="237.39 86.2 215.47 197.48 259.31 197.48 237.39 86.2"/><rect class="cls-14" x="232.69" y="197.48" width="9.39" height="23.48"/><polygon class="cls-15" points="45.3 48.12 25.36 149.37 65.25 149.37 45.3 48.12"/><rect class="cls-16" x="41.03" y="149.37" width="8.55" height="21.37"/><polygon class="cls-17" points="273.47 88.2 269.89 106.36 277.04 106.36 273.47 88.2"/><rect class="cls-18" x="272.7" y="106.36" width="1.53" height="3.83"/><polygon class="cls-19" points="203.59 86.24 200.01 104.4 207.16 104.4 203.59 86.24"/><rect class="cls-20" x="202.82" y="104.4" width="1.53" height="3.83"/><polygon class="cls-21" points="222.85 84.77 220.01 99.19 225.69 99.19 222.85 84.77"/><rect class="cls-22" x="222.24" y="99.19" width="1.22" height="3.04"/><polygon class="cls-23" points="280.36 83.1 272.91 120.91 287.8 120.91 280.36 83.1"/><rect class="cls-24" x="278.76" y="120.91" width="3.19" height="7.98"/><polygon class="cls-25" points="172.74 79.76 165.86 114.71 179.63 114.71 172.74 79.76"/><rect class="cls-26" x="171.27" y="114.71" width="2.95" height="7.38"/><polygon class="cls-27" points="162.03 80.11 154.58 117.92 169.47 117.92 162.03 80.11"/><rect class="cls-28" x="160.43" y="117.92" width="3.19" height="7.98"/><line class="cls-29" x1="120.97" y1="126.33" x2="120.97" y2="213.86"/><rect class="cls-30" x="79.49" y="36.9" width="82.96" height="82.96" rx="9.03" ry="9.03" transform="translate(90.85 -62.58) rotate(45)"/><rect class="cls-31" x="87.07" y="44.48" width="67.81" height="67.81" rx="1.63" ry="1.63" transform="translate(90.85 -62.58) rotate(45)"/><path class="cls-32" d="M105.24,73.17a5.15,5.15,0,0,1-1.48-.21,3.9,3.9,0,0,1-1.27-.65,3,3,0,0,1-.91-1.24,4.83,4.83,0,0,1-.33-1.87V63.08h1.91V69.2a2.15,2.15,0,0,0,.52,1.65,2.79,2.79,0,0,0,3.11,0,2.13,2.13,0,0,0,.53-1.65V63.08h1.91V69.2a3.73,3.73,0,0,1-1.13,3A4.29,4.29,0,0,1,105.24,73.17Z"/><path class="cls-32" d="M117.16,73l-2.1-3.33L113,73h-2.24l3.22-5.12-3-4.8h2.24l1.9,3,1.9-3h2.24l-3,4.8L119.4,73Z"/><path class="cls-32" d="M119.75,74.84l5.57-11.93h1.9l-5.57,11.93Z"/><path class="cls-32" d="M132.42,73.17a5.15,5.15,0,0,1-1.48-.21,3.9,3.9,0,0,1-1.27-.65,3,3,0,0,1-.91-1.24,4.83,4.83,0,0,1-.33-1.87V63.08h1.91V69.2a2.15,2.15,0,0,0,.52,1.65,2.79,2.79,0,0,0,3.11,0,2.13,2.13,0,0,0,.53-1.65V63.08h1.91V69.2a3.73,3.73,0,0,1-1.13,3A4.29,4.29,0,0,1,132.42,73.17Z"/><path class="cls-32" d="M138.69,73V63.08h1.91V73Z"/><path class="cls-32" d="M104.05,90,103.29,88H99.46L98.7,90H96.64l3.8-9.92h1.87l3.8,9.92Zm-1.39-3.8-1-2.58a8.3,8.3,0,0,1-.31-.89,8,8,0,0,1-.31.89l-1,2.58Z"/><path class="cls-32" d="M113.62,90V85.81h-4.15V90h-1.91V80.09h1.91V84h4.15V80.09h1.91V90Z"/><path class="cls-32" d="M117.8,90V80.09h6.77V81.9h-4.86V84h2.86V85.8h-2.86v2.39h5.16V90Z"/><path class="cls-32" d="M133.37,90,132.61,88h-3.83L128,90H126l3.8-9.92h1.87l3.8,9.92ZM132,86.21l-1-2.58a8.3,8.3,0,0,1-.31-.89,8,8,0,0,1-.31.89l-1,2.58Z"/><path class="cls-32" d="M136.87,80.09h3.34a5.46,5.46,0,0,1,2.2.42,3.73,3.73,0,0,1,1.51,1.14,5.1,5.1,0,0,1,.82,1.58A6,6,0,0,1,145,85a6.48,6.48,0,0,1-.15,1.39,4.88,4.88,0,0,1-.52,1.34,4.51,4.51,0,0,1-.91,1.15,4,4,0,0,1-1.39.79,5.72,5.72,0,0,1-1.9.3h-3.29Zm3.51,8.11a2.26,2.26,0,0,0,2-.94A3.77,3.77,0,0,0,143,85a3.82,3.82,0,0,0-.64-2.22,2.11,2.11,0,0,0-1.86-.93h-1.76v6.29Z"/></svg>