<?xml version="1.0" encoding="UTF-8"?>
<svg width="659px" height="128px" viewBox="0 0 659 128" version="1.1" xmlns="http://www.w3.org/2000/svg" xmlns:xlink="http://www.w3.org/1999/xlink">
    <!-- Generator: Sketch 46.2 (44496) - http://www.bohemiancoding.com/sketch -->
    <title>Logos</title>
    <desc>Created with Sketch.</desc>
    <defs></defs>
    <g id="Site" stroke="none" stroke-width="1" fill="none" fill-rule="evenodd" opacity="0.349999994">
        <g id="Home" transform="translate(-371.000000, -3412.000000)">
            <g id="Logos" transform="translate(371.000000, 3412.000000)">
                <g id="Booz-Allen" transform="translate(329.500000, 108.000000) scale(1, -1) translate(-329.500000, -108.000000) translate(150.000000, 88.000000)" fill="#100E0D">
                    <path d="M3.0590985,10.5817349 L3.0590985,20.3545663 L8.82070117,20.3545663 C10.2590985,20.3545663 11.8797997,20.3545663 12.9595993,19.4331044 C14.2196995,18.5116426 14.9388982,16.8513695 14.9388982,15.3757992 C14.9388982,13.9002289 14.4,12.6093614 13.3202003,11.6878996 C12.2404007,10.7664378 10.6196995,10.5817349 9.17929883,10.5817349 L3.0590985,10.5817349 L3.0590985,10.5817349 Z M3.0590985,22.7515984 L3.0590985,31.4182651 L8.82070117,31.4182651 C10.0808013,31.4182651 11.1585977,31.4182651 12.2404007,30.8641566 C13.5005008,30.1273976 14.2196995,28.8365301 14.2196995,27.3609598 C14.2196995,26.0700924 13.5005008,24.5965743 12.5989983,23.857763 C11.3388982,22.7515984 9.53989983,22.7515984 7.91919866,22.7515984 L3.0590985,22.7515984 L3.0590985,22.7515984 Z M9.35959933,8 C11.6994992,8 13.678798,8.18470282 15.4797997,9.66027311 C17.278798,11.1337911 18,12.9787671 18,15.1910964 C18,18.5116426 15.8404007,21.0933775 12.7792988,21.8301366 C15.4797997,22.5668956 17.278798,24.7792249 17.278798,27.5456626 C17.278798,29.7579919 16.1989983,31.6029679 14.5803005,32.7091325 C12.7792988,33.8152972 11.3388982,34 9.35959933,34 L0,34 L0,8 L9.35959933,8 L9.35959933,8 Z" id="path26"></path>
                    <path d="M24.2550622,18.091893 C24.2550622,19.7439249 24.4362345,21.5777006 25.1589106,22.8621605 C26.062759,24.5141924 27.6912966,25.6148662 29.5010065,25.6148662 C31.1275311,25.6148662 32.7560687,24.6979784 33.6599171,23.4135185 C34.5637655,21.7614866 34.7449378,19.9277108 34.7449378,18.091893 C34.7449378,16.4419032 34.5637655,14.7898713 33.8410894,13.1378395 C32.937241,11.4858076 31.4898757,10.3851338 29.5010065,10.3851338 C27.6912966,10.3851338 26.062759,11.3040637 25.3400829,12.7702675 C24.4362345,14.4222994 24.2550622,16.4419032 24.2550622,18.091893 Z M21,18.091893 C21,13.1378395 23.532386,8 29.1386619,8 C34.9261101,8 38,12.7702675 38,18.091893 C38,23.0459465 35.2884547,28 29.6821788,28 C24.0738899,28 21,23.4135185 21,18.091893 L21,18.091893 Z" id="path28"></path>
                    <path d="M44.2913725,18.091893 C44.2913725,19.7439249 44.4744526,21.5777006 45.2047385,22.8621605 C45.9350245,24.5141924 47.7637908,25.6148662 49.5905229,25.6148662 C51.2362092,25.6148662 52.6988154,24.6979784 53.6121814,23.4135185 C54.7086275,21.7614866 54.8917076,19.9277108 54.8917076,18.091893 C54.8917076,16.4419032 54.7086275,14.7898713 53.9783415,13.1378395 C53.0629412,11.4858076 51.4192892,10.3851338 49.5905229,10.3851338 C47.7637908,10.3851338 46.1181046,11.3040637 45.3878186,12.7702675 C44.4744526,14.4222994 44.2913725,16.4419032 44.2913725,18.091893 L44.2913725,18.091893 Z M41,18.091893 C41,13.1378395 43.5590523,8 49.226397,8 C55.0747876,8 58,12.7702675 58,18.091893 C58,23.0459465 55.2578677,28 49.773603,28 C44.1082924,28 41,23.4135185 41,18.091893 L41,18.091893 Z" id="path30"></path>
                    <polyline id="path32" points="74 25.3551632 63.6366002 10.3747459 74 10.3747459 74 8 60 8 60 10.3747459 70.18329 24.8062065 60.9086441 24.8062065 60.9086441 27 74 27 74 25.3551632"></polyline>
                    <polygon id="path34" fill-rule="nonzero" points="91 0 93 0 93 40 91 40"></polygon>
                    <path d="M121.694976,18.142237 L113.946054,18.142237 L117.730272,30.4968032 L121.694976,18.142237 Z M119.711621,34 L116.288379,34 L108,8 L110.703299,8 L113.045623,15.560502 L122.41492,15.560502 L124.937732,8 L128,8 L119.711621,34 L119.711621,34 Z" id="path36"></path>
                    <path d="M150.289995,19.9277108 C150.289995,22.8621605 152.481969,25.7986522 155.76993,25.7986522 C159.059925,25.7986522 161.068896,23.0459465 160.885892,19.9277108 L150.289995,19.9277108 Z M161.068896,14.0547274 C160.155912,11.8533796 158.327911,10.3851338 155.952934,10.3851338 C153.943963,10.3851338 151.749955,11.6695936 150.836972,13.5054115 C150.106991,14.7898713 150.106991,16.2581172 150.106991,17.724321 L163.99085,17.724321 C164.173853,23.0459465 161.617906,28 155.76993,28 C150.106991,28 147,23.2297325 147,17.908107 C147,12.5885236 149.923988,8 155.586927,8 C159.240895,8 162.530889,10.2013478 163.80988,13.6891975 L161.068896,14.0547274 L161.068896,14.0547274 Z" id="path38"></path>
                    <path d="M170.741557,24.2617017 L170.924599,24.2617017 C171.837773,26.3170377 174.213247,28 176.771763,28 C179.147237,28 180.97562,27.0659455 182.254877,25.0085292 C183.168052,23.3276472 182.98501,20.7106303 182.98501,18.840441 L182.98501,8 L180.060411,8 L180.060411,20.1489494 C180.060411,21.2723112 180.243453,22.5808196 179.696362,23.7000208 C178.964195,24.8233826 177.684937,25.3829831 176.40568,25.3829831 C174.762372,25.3829831 173.483115,24.6361556 172.384865,23.5148741 C171.288648,22.0191388 170.924599,20.1489494 170.924599,18.2808404 L170.924599,8 L168,8 L168,27.4403994 L170.741557,27.4403994 L170.741557,24.2617017" id="path40"></path>
                    <path d="M346.892196,24.2617017 L346.892196,24.2617017 C347.795253,26.3170377 350.144409,28 352.674578,28 C355.023733,28 356.829847,27.0659455 358.096943,25.0085292 C359,23.3276472 359,20.7106303 359,18.840441 L359,8 L356.107804,8 L356.107804,20.1489494 C356.107804,21.2723112 356.107804,22.5808196 355.566774,23.7000208 C354.842719,24.8233826 353.577635,25.3829831 352.31255,25.3829831 C350.866452,25.3829831 349.422365,24.6361556 348.519308,23.5148741 C347.254224,22.0191388 346.892196,20.1489494 346.892196,18.2808404 L346.892196,8 L344,8 L344,27.4403994 L346.892196,27.4403994 L346.892196,24.2617017" id="path42"></path>
                    <polygon id="path44" fill-rule="nonzero" points="200 0 202 0 202 40 200 40"></polygon>
                    <polyline id="path46" points="235.878365 8 235.878365 20.5392691 223.939693 20.5392691 223.939693 8 221 8 221 34 223.939693 34 223.939693 22.9363012 235.878365 22.9363012 235.878365 34 239 34 239 8 235.878365 8"></polyline>
                    <path d="M255.764787,16.8074331 C255.764787,13.5054115 253.42791,10.3851338 250.01263,10.3851338 C247.673753,10.3851338 245.877079,11.3040637 245.877079,13.6891975 C245.877079,17.540535 250.01263,18.091893 253.42791,18.091893 L255.764787,18.091893 L255.764787,16.8074331 Z M253.42791,20.2932408 C251.091034,20.2932408 248.394023,20.1114968 246.415281,19.1925669 C244.438539,18.275679 243,16.0743312 243,13.8729835 C243,10.0196038 245.877079,8 249.472427,8 C252.347505,8 254.506315,9.28445987 255.764787,12.0371656 L256.122921,8.36757198 L259,8.36757198 C258.639865,9.65203186 258.461798,11.1202777 258.461798,12.4047376 L258.461798,19.9277108 C258.461798,21.9452726 258.461798,24.5141924 257.023259,26.1662242 C255.584719,27.816214 253.42791,28 251.449168,28 C248.033888,28 244.080405,26.7155401 243.540203,22.6804166 L246.057146,22.3128446 C246.595348,24.8817643 248.932225,25.6148662 251.091034,25.6148662 C254.326247,25.6148662 255.764787,24.5141924 255.764787,21.0283847 L255.764787,20.2932408 L253.42791,20.2932408 L253.42791,20.2932408 Z" id="path48"></path>
                    <path d="M266.786231,27.4403994 L266.786231,24.0744747 C267.714286,26.131891 269.944511,28 272.544717,28 C275.328881,28 277.55704,25.944664 277.929088,23.7000208 C279.043167,26.131891 281.271325,28 284.243581,28 C286.285714,28 288.143891,26.8787185 289.071945,25.1957562 C290,23.5148741 290,21.4574579 290,19.5893489 L290,8 L287.029812,8 L287.029812,19.5893489 C287.029812,20.8978573 287.029812,22.3935927 286.471739,23.5148741 C285.915733,24.8233826 284.615629,25.5702101 283.315526,25.5702101 C281.829398,25.5702101 280.343271,24.6361556 279.60124,23.3276472 C278.487161,21.8319118 278.487161,20.3361764 278.487161,18.4680674 L278.487161,8 L275.514906,8 L275.514906,20.3361764 C275.514906,21.4574579 275.514906,22.7659663 274.956833,23.7000208 C274.214802,24.8233826 272.914699,25.5702101 271.614596,25.5702101 C270.314492,25.5702101 269.014389,24.6361556 268.086334,23.7000208 C267.15828,22.3935927 266.972255,20.7106303 266.972255,19.2148949 L266.972255,8 L264,8 L264,27.4403994 L266.786231,27.4403994" id="path50"></path>
                    <path d="M295.166976,27.1777708 L297.834879,27.1777708 L297.834879,8 L295.166976,8 L295.166976,27.1777708 Z M295,34 L298,34 L298,30.6812441 L295,30.6812441 L295,34 Z" id="path52"></path>
                    <polygon id="path54" fill-rule="nonzero" points="304 8 307 8 307 34 304 34"></polygon>
                    <polygon id="path56" fill-rule="nonzero" points="131 8 134 8 134 34 131 34"></polygon>
                    <polygon id="path58" fill-rule="nonzero" points="140 8 143 8 143 34 140 34"></polygon>
                    <path d="M322,8.37375415 L319.14417,8 C314.761837,8 313.428269,10.6121262 313.428269,14.3434385 L313.428269,25.5373754 L310,25.5373754 L310,27.9626246 L313.428269,27.9626246 L313.428269,32.8131229 L316.477032,33 L316.477032,27.9626246 L320.857244,27.9626246 L320.857244,25.5373754 L316.477032,25.5373754 L316.477032,13.9717608 C316.477032,11.7313123 317.238163,10.4252492 319.714488,10.4252492 L322,10.6121262 L322,8.37375415" id="path60"></path>
                    <path d="M326.291766,18.091893 C326.291766,19.7439249 326.472834,21.5777006 327.205242,22.8621605 C327.935615,24.5141924 329.581498,25.6148662 331.408449,25.6148662 C333.237434,25.6148662 334.700215,24.6979784 335.613691,23.4135185 C336.710268,21.7614866 336.89337,19.9277108 336.89337,18.091893 C336.89337,16.4419032 336.710268,14.7898713 335.979895,13.1378395 C335.064385,11.4858076 333.420536,10.3851338 331.408449,10.3851338 C329.7646,10.3851338 328.118717,11.3040637 327.388344,12.7702675 C326.472834,14.4222994 326.291766,16.4419032 326.291766,18.091893 L326.291766,18.091893 Z M323,18.091893 C323,13.1378395 325.559359,8 331.225347,8 C337.076472,8 340,12.7702675 340,18.091893 C340,23.0459465 337.259574,28 331.774653,28 C325.925562,28 323,23.4135185 323,18.091893 L323,18.091893 Z" id="path62"></path>
                </g>
                <g id="CBT" transform="translate(365.000000, 0.000000)" fill-rule="nonzero" fill="#000000">
                    <path d="M16,38.9459825 C12.2891566,32.6531815 10.2650602,26.5090293 9.34939759,21.1081213 C9.15662651,19.869381 8.96385542,18.6801902 8.86746988,17.5405491 C8.62650602,15.112618 8.62650602,12.932435 8.77108434,11 C8.62650602,11.1486488 8.53012048,11.2972977 8.38554217,11.4459465 L8.3373494,11.4954961 C8.19277108,11.644145 8.09638554,11.7927938 7.95180723,11.9414427 C7.95180723,11.9909923 7.90361446,11.9909923 7.90361446,12.0405419 C7.46987952,12.536038 7.03614458,13.0810838 6.65060241,13.5765799 C3.85542169,17.045053 1.63855422,20.9099229 0,25.0720905 L0.43373494,26.1126324 C2.02409639,29.8288535 4.04819277,33.3964257 6.60240964,36.6171506 C7.13253012,37.3108452 7.6626506,37.9549902 8.24096386,38.6486848 L11.7590361,38.8964329 C12.6746988,38.9955321 14.1204819,39.0450817 16,38.9459825 Z" id="Shape"></path>
                    <path d="M21.1308815,41.6987952 C19.8954081,41.939759 18.7093537,42.0843373 17.5727182,42.1807229 C15.2006094,42.4216867 12.9767574,42.4216867 11.0494189,42.2771084 L11,42.2771084 C11.8401219,43.0481928 12.6802438,43.7228916 13.5697846,44.4457831 C17.0785289,47.1927711 20.9826247,49.3614458 25.0843962,51 C25.4303287,50.8554217 25.8256802,50.7108434 26.1716128,50.5662651 C29.8780328,48.9759036 33.3867771,46.9518072 36.6484268,44.4457831 C37.3402918,43.9156627 38.0321569,43.3373494 38.6746031,42.7590361 L38.9216977,39.2409639 C38.9711167,38.2771084 39.0699545,36.8313253 38.9216977,35 C32.694912,38.7108434 26.5669642,40.7349398 21.1308815,41.6987952 Z" id="Shape"></path>
                    <path d="M35,12.053827 C38.7108434,18.3244347 40.7349398,24.4469178 41.6987952,29.828778 C41.8915663,31.0631496 42.0843373,32.2481464 42.1807229,33.3837682 C42.4216867,35.7537617 42.4216867,37.9756306 42.2771084,39.9012503 L42.2771084,40 C43.0481928,39.1606273 43.7228916,38.3212546 44.4457831,37.4325071 C47.1927711,33.9268917 49.3614458,30.0262775 51,25.9281638 C50.8554217,25.5825397 50.7108434,25.2369157 50.5662651,24.9406665 C48.9759036,21.1881768 46.9518072,17.6825615 44.3975904,14.4238205 C43.8674699,13.7325724 43.3373494,13.0906991 42.7590361,12.399451 L39.2409639,12.1032019 C38.2771084,12.0044521 36.8313253,11.9550773 35,12.053827 L35,12.053827 Z" id="Shape"></path>
                    <path d="M37.3807965,6.57401813 C33.8720522,3.86706949 29.9679564,1.64350453 25.8661849,0 C25.5202523,0.145015106 25.1743198,0.290030211 24.8778062,0.386706949 C21.1219672,2.03021148 17.5638039,4.06042296 14.3515732,6.57401813 C13.6597082,7.10574018 13.017262,7.63746224 12.3748159,8.21752266 L12.0783023,11.7945619 C12.0288833,12.7613293 11.9300455,14.163142 12.0783023,16 C18.3545069,12.326284 24.4824547,10.2477341 29.8691185,9.32930514 C31.1045919,9.13595166 32.2906463,8.94259819 33.4272818,8.84592145 C35.7993906,8.60422961 38.0232426,8.60422961 39.9505811,8.74924471 L40,8.74924471 C39.1598781,7.97583082 38.2703373,7.29909366 37.3807965,6.57401813 Z" id="Shape"></path>
                    <path d="M73.7092466,42.5 L72.9746575,40.65 L68.9099315,40.65 L68.1753425,42.5 L67,42.5 L70.330137,34.1 L71.6523973,34.1 L74.9335616,42.5 L73.7092466,42.5 Z M70.9178082,35.25 L69.2037671,39.75 L72.7297945,39.75 L70.9178082,35.25 Z M156.619863,42.7 C158.089041,42.7 159.068493,42.05 159.705137,41.05 L158.82363,40.55 C158.333904,41.3 157.452397,41.8 156.521918,41.8 C154.709932,41.8 153.338699,40.4 153.338699,38.4 C153.338699,36.4 154.709932,35 156.521918,35 C157.50137,35 158.333904,35.5 158.82363,36.25 L159.656164,35.75 C159.019521,34.75 158.040068,34.1 156.57089,34.1 C154.220205,34.1 152.310274,35.85 152.310274,38.45 C152.310274,41.05 154.171233,42.7 156.619863,42.7 Z M160.537671,38.35 C160.537671,35.85 162.153767,34 164.602397,34 C167.051027,34 168.667123,35.85 168.667123,38.35 C168.667123,40.85 167.051027,42.7 164.602397,42.7 C162.153767,42.7 160.537671,40.85 160.537671,38.35 Z M167.638699,38.35 C167.638699,36.35 166.414384,34.95 164.602397,34.95 C162.741438,34.95 161.566096,36.35 161.566096,38.35 C161.566096,40.25 162.692466,41.75 164.602397,41.75 C166.414384,41.75 167.638699,40.35 167.638699,38.35 Z M177.335274,42.5 L178.314726,42.6 L178.314726,34.2 L176.845548,34.2 L174.298973,40.6 L171.80137,34.2 L170.332192,34.2 L170.332192,42.55 L171.409589,42.55 L171.409589,35.45 L174.201027,42.55 L174.592808,42.55 L177.384247,35.45 L177.384247,42.5 L177.335274,42.5 Z M180.27363,42.5 L180.27363,34.2 L183.554795,34.2 C185.17089,34.2 186.150342,35.35 186.150342,36.7 C186.150342,38.05 185.268836,39.2 183.554795,39.2 L181.253082,39.2 L181.253082,42.55 L180.27363,42.55 L180.27363,42.5 Z M185.023973,36.7 C185.023973,35.8 184.387329,35.1 183.407877,35.1 L181.302055,35.1 L181.302055,38.25 L183.407877,38.25 C184.387329,38.25 185.023973,37.7 185.023973,36.7 Z M192.369863,42.5 L191.635274,40.65 L187.570548,40.65 L186.835959,42.5 L185.709589,42.5 L189.039726,34.1 L190.361986,34.1 L193.643151,42.5 L192.369863,42.5 Z M189.67637,35.25 L187.962329,39.75 L191.488356,39.75 L189.67637,35.25 Z M200.450342,42.5 L201.429795,42.6 L201.429795,34.2 L200.352397,34.2 L200.352397,40.8 L195.602055,34.2 L194.524658,34.2 L194.524658,42.55 L195.602055,42.55 L195.602055,35.85 L200.450342,42.5 L200.450342,42.5 Z M206.718836,42.5 L206.718836,38.9 L210,34.05 L208.775685,34.05 L206.22911,37.95 L203.682534,34.05 L202.458219,34.05 L205.739384,38.9 L205.739384,42.5 L206.718836,42.5 Z M84.140411,40.1 C84.140411,38.95 83.5527397,38.25 82.5732877,37.85 L81.2020548,37.2 C80.8592466,37.1 80.3695205,36.85 80.3695205,36.45 C80.3695205,35.85 80.9571918,35.7 81.4469178,35.7 C81.9366438,35.7 82.5732877,35.85 83.0630137,36.1 C83.1609589,36.2 83.2099315,36.2 83.3078767,36.2 C83.4058219,36.2 83.4547945,36.1 83.5527397,35.95 L84.0424658,34.95 C84.140411,34.85 84.140411,34.85 84.140411,34.8 C84.140411,34.75 84.0424658,34.65 83.8955479,34.55 C83.0630137,34.2 82.3284247,34.05 81.4469178,34.05 C79.9777397,34.05 78.4106164,34.95 78.4106164,36.55 C78.4106164,37.65 78.9982877,38.4 79.8797945,38.8 L81.4958904,39.55 C81.8876712,39.7 82.2304795,39.95 82.2304795,40.45 C82.2304795,41.1 81.5938356,41.35 81.1041096,41.35 C80.5164384,41.35 79.7818493,41.2 79.2431507,40.95 C79.0962329,40.85 79.0962329,40.85 78.9982877,40.85 C78.8513699,40.85 78.7534247,41 78.7534247,41.1 L78.4106164,42.1 C78.3126712,42.2 78.3126712,42.25 78.3126712,42.35 C78.3126712,42.45 78.4106164,42.5 78.5575342,42.6 C79.2921233,42.85 80.2715753,43 81.1041096,43 C82.7691781,43 84.140411,42 84.140411,40.1 Z M93.1023973,43 L94.2287671,43 C94.4736301,43 94.5715753,42.85 94.5715753,42.6 L94.1797945,34.6 C94.1797945,34.35 94.0818493,34.25 93.8369863,34.25 L93.0044521,34.25 C92.759589,34.25 92.6126712,34.35 92.514726,34.6 L90.0660959,40.25 L90.0660959,40.25 L87.3726027,34.6 C87.2746575,34.35 87.1277397,34.25 86.8828767,34.25 L86.0013699,34.25 C85.7565068,34.25 85.609589,34.35 85.609589,34.65 L85.2667808,42.5 C85.2667808,42.85 85.364726,42.9 85.6585616,42.9 L86.6380137,42.9 C86.8828767,42.9 87.0297945,42.8 87.0297945,42.5 L87.1277397,38.1 L87.1277397,38.1 L89.2335616,42.6 C89.3804795,42.85 89.4784247,42.85 89.7232877,42.85 L90.2130137,42.85 C90.3599315,42.85 90.5558219,42.85 90.6047945,42.6 L92.4657534,38.1 L92.4657534,38.1 L92.6126712,42.35 C92.6126712,42.7 92.7106164,42.85 93.0044521,42.85 L93.0044521,43 L93.1023973,43 Z M103.582534,42.85 L102.211301,42.85 C101.868493,42.85 101.819521,42.7 101.721575,42.5 L101.231849,41.1 L98.1955479,41.1 L97.7058219,42.6 C97.6078767,42.75 97.5589041,42.95 97.3630137,42.95 L95.9917808,42.95 C95.844863,42.95 95.844863,42.85 95.844863,42.8 C95.844863,42.7 95.844863,42.7 95.844863,42.65 L98.7832192,34.65 C98.8811644,34.5 98.930137,34.3 99.175,34.3 L100.399315,34.3 C100.644178,34.3 100.791096,34.4 100.791096,34.55 L103.729452,42.45 C103.729452,42.55 103.729452,42.6 103.729452,42.6 C103.827397,42.75 103.729452,42.85 103.582534,42.85 Z M100.693151,39.6 L99.9585616,37.1 C99.8606164,36.85 99.8116438,36.6 99.7136986,36.35 L99.7136986,36.35 C99.6157534,36.6 99.5667808,36.85 99.4688356,37.1 L98.7342466,39.5 L100.693151,39.6 L100.693151,39.6 Z M109.361301,42.6 L107.64726,39.95 L106.912671,39.95 L106.912671,42.55 C106.912671,42.7 106.814726,42.9 106.569863,42.9 L105.247603,42.9 C105.00274,42.9 104.904795,42.8 104.904795,42.55 L104.904795,34.7 C104.904795,34.35 105.00274,34.3 105.296575,34.3 L107.157534,34.3 C108.234932,34.3 109.459247,34.4 110.193836,35.2 C110.585616,35.7 110.830479,36.35 110.830479,37.05 C110.830479,38.15 110.340753,39.05 109.361301,39.65 L109.361301,39.65 L111.418151,42.55 C111.516096,42.65 111.516096,42.7 111.516096,42.8 C111.516096,42.9 111.418151,42.95 111.369178,42.95 L109.9,42.95 C109.606164,42.85 109.459247,42.85 109.361301,42.6 Z M107.304452,35.7 L106.814726,35.7 L106.814726,38.45 L107.402397,38.45 C108.283904,38.45 108.871575,37.95 108.871575,37.05 C108.969521,36.1 108.283904,35.7 107.304452,35.7 Z M118.568151,34.25 L111.956849,34.25 C111.711986,34.25 111.614041,34.35 111.614041,34.6 L111.614041,35.5 C111.614041,35.75 111.711986,35.85 111.956849,35.85 L114.160616,35.85 L114.160616,42.6 C114.160616,42.95 114.160616,42.95 114.405479,42.95 L115.776712,42.95 C116.021575,42.95 116.021575,42.85 116.021575,42.6 L116.021575,35.85 L118.127397,35.85 C118.37226,35.85 118.519178,35.75 118.519178,35.5 L118.617123,34.5 C118.666096,34.35 118.568151,34.2 118.568151,34.25 Z M122.681849,42.85 L120.233219,42.85 C119.890411,42.85 119.890411,42.75 119.890411,42.45 L119.890411,34.6 C119.890411,34.25 119.988356,34.25 120.282192,34.25 L122.241096,34.25 C124.444863,34.25 125.52226,34.9 125.52226,36.35 C125.52226,37.2 125.032534,37.95 124.2,38.2 L124.2,38.2 C125.32637,38.3 126.158904,39.1 126.158904,40.35 C126.158904,42.35 124.444863,42.85 122.681849,42.85 Z M122.436986,35.7 L121.849315,35.7 L121.849315,37.6 L122.339041,37.6 C123.220548,37.6 123.661301,37.35 123.661301,36.5 C123.661301,36 123.171575,35.7 122.436986,35.7 Z M123.661301,39.2 C123.318493,39.05 122.926712,39.05 122.436986,39.05 C122.290068,39.05 122.045205,39.05 121.849315,39.05 L121.849315,41.4 L122.583904,41.4 C122.926712,41.4 123.318493,41.4 123.563356,41.3 C123.955137,41.15 124.2,40.8 124.2,40.3 C124.2,39.7 123.955137,39.35 123.661301,39.2 Z M132.280479,34.2 L127.481164,34.1 C127.236301,34.1 127.138356,34.2 127.138356,34.45 L127.138356,42.35 C127.138356,42.7 127.285274,42.75 127.530137,42.75 L132.280479,42.75 C132.525342,42.75 132.623288,42.65 132.623288,42.4 L132.623288,41.5 C132.623288,41.25 132.525342,41.15 132.280479,41.15 L129.09726,41.15 L129.09726,39.15 L131.888699,39.15 C132.133562,39.15 132.231507,39.05 132.231507,38.8 L132.231507,37.9 C132.231507,37.75 132.133562,37.55 131.888699,37.55 L129.09726,37.55 L129.09726,35.7 L132.035616,35.7 C132.378425,35.7 132.525342,35.6 132.525342,35.35 L132.623288,34.35 C132.623288,34.25 132.525342,34.2 132.280479,34.2 L132.280479,34.2 Z M141.193493,42.85 L139.82226,42.85 C139.479452,42.85 139.430479,42.7 139.332534,42.5 L138.842808,41.1 L135.806507,41.1 L135.316781,42.6 C135.218836,42.75 135.169863,42.95 134.973973,42.95 L133.60274,42.95 C133.455822,42.95 133.455822,42.85 133.455822,42.8 C133.455822,42.7 133.455822,42.7 133.455822,42.65 L136.394178,34.65 C136.492123,34.5 136.541096,34.3 136.785959,34.3 L138.010274,34.3 C138.255137,34.3 138.402055,34.4 138.402055,34.55 L141.340411,42.45 C141.340411,42.55 141.340411,42.6 141.340411,42.6 C141.438356,42.75 141.340411,42.85 141.193493,42.85 Z M138.255137,39.6 L137.520548,37.1 C137.422603,36.85 137.37363,36.6 137.275685,36.35 L137.275685,36.35 C137.17774,36.6 137.128767,36.85 137.030822,37.1 L136.296233,39.5 L138.255137,39.6 L138.255137,39.6 Z M146.727397,42.6 L145.013356,39.95 L144.278767,39.95 L144.278767,42.55 C144.278767,42.7 144.180822,42.9 143.935959,42.9 L142.613699,42.9 C142.368836,42.9 142.27089,42.8 142.27089,42.55 L142.27089,34.7 C142.27089,34.35 142.368836,34.3 142.662671,34.3 L144.52363,34.3 C145.601027,34.3 146.825342,34.4 147.559932,35.2 C147.951712,35.7 148.196575,36.35 148.196575,37.05 C148.196575,38.15 147.706849,39.05 146.727397,39.65 L146.727397,39.65 L148.784247,42.55 C148.882192,42.65 148.882192,42.7 148.882192,42.8 C148.882192,42.9 148.784247,42.95 148.735274,42.95 L147.266096,42.95 C147.070205,42.85 146.923288,42.85 146.727397,42.6 Z M144.768493,35.7 L144.278767,35.7 L144.278767,38.45 L144.866438,38.45 C145.747945,38.45 146.335616,37.95 146.335616,37.05 C146.335616,36.1 145.698973,35.7 144.768493,35.7 Z" id="Shape"></path>
                    <path d="M130,26.6936937 L130,10 L138.390244,10 C141.414634,10 142.97561,12.042042 142.97561,14.2372372 C142.97561,16.3303303 141.707317,17.7597598 140.243902,18.0660661 C141.95122,18.3213213 143.317073,20.0570571 143.317073,22.1501502 C143.317073,24.7027027 141.756098,26.6936937 138.682927,26.6936937 L130,26.6936937 Z M139.560976,14.9009009 C139.560976,13.8798799 138.829268,13.1651652 137.707317,13.1651652 L133.463415,13.1651652 L133.463415,16.6876877 L137.707317,16.6876877 C138.829268,16.6366366 139.560976,15.972973 139.560976,14.9009009 Z M139.853659,21.6906907 C139.853659,20.6186186 139.121951,19.8018018 137.804878,19.8018018 L133.414634,19.8018018 L133.414634,23.6306306 L137.804878,23.6306306 C139.073171,23.5795796 139.853659,22.8648649 139.853659,21.6906907 Z M145.804878,26.6936937 L145.804878,14.5945946 L148.829268,14.5945946 L148.829268,16.2282282 C149.658537,15.1561562 151.073171,14.2882883 152.536585,14.2882883 L152.536585,17.4024024 C152.341463,17.3513514 152.04878,17.3513514 151.707317,17.3513514 C150.682927,17.3513514 149.365854,17.963964 148.878049,18.7297297 L148.878049,26.6936937 L145.804878,26.6936937 L145.804878,26.6936937 Z M153.707317,20.6186186 C153.707317,17.1981982 156,14.2882883 159.804878,14.2882883 C163.609756,14.2882883 165.95122,17.1981982 165.95122,20.6186186 C165.95122,24.039039 163.658537,27 159.804878,27 C156,27 153.707317,24.0900901 153.707317,20.6186186 Z M162.731707,20.6186186 C162.731707,18.7297297 161.658537,17.0960961 159.756098,17.0960961 C157.853659,17.0960961 156.829268,18.7297297 156.829268,20.6186186 C156.829268,22.5075075 157.902439,24.1411411 159.756098,24.1411411 C161.707317,24.1921922 162.731707,22.5585586 162.731707,20.6186186 Z M178.341463,26.6936937 L175.902439,18.4744745 L173.463415,26.6936937 L170.195122,26.6936937 L166.682927,14.5945946 L169.853659,14.5945946 L172,22.7117117 L174.536585,14.5945946 L177.219512,14.5945946 L179.756098,22.7117117 L181.902439,14.5945946 L185.073171,14.5945946 L181.609756,26.6936937 L178.341463,26.6936937 Z M185.609756,25.1111111 L186.926829,22.8138138 C187.804878,23.6816817 189.463415,24.4984985 190.926829,24.4984985 C192.243902,24.4984985 192.878049,23.987988 192.878049,23.2222222 C192.878049,21.2312312 186.04878,22.8648649 186.04878,18.1171171 C186.04878,16.0750751 187.707317,14.2882883 190.780488,14.2882883 C192.731707,14.2882883 194.292683,15.003003 195.414634,15.9219219 L194.195122,18.1681682 C193.512195,17.4024024 192.195122,16.7897898 190.780488,16.7897898 C189.658537,16.7897898 188.97561,17.3003003 188.97561,17.963964 C188.97561,19.7507508 195.853659,18.2192192 195.853659,23.1201201 C195.853659,25.3663664 194.04878,27 190.829268,27 C188.780488,27 186.829268,26.2852853 185.609756,25.1111111 L185.609756,25.1111111 Z M197.268293,20.6186186 C197.268293,17.0960961 199.756098,14.2882883 203.268293,14.2882883 C206.731707,14.2882883 209.073171,16.993994 209.073171,20.9249249 L209.073171,21.6906907 L200.487805,21.6906907 C200.682927,23.1711712 201.853659,24.3963964 203.804878,24.3963964 C204.780488,24.3963964 206.146341,23.987988 206.878049,23.2222222 L208.243902,25.3153153 C207.073171,26.4384384 205.268293,27 203.463415,27 C199.95122,27 197.268293,24.5495495 197.268293,20.6186186 L197.268293,20.6186186 Z M203.268293,16.8918919 C201.365854,16.8918919 200.585366,18.2702703 200.439024,19.4954955 L206.146341,19.4954955 C206.04878,18.3213213 205.268293,16.8918919 203.268293,16.8918919 L203.268293,16.8918919 Z M211.268293,26.6936937 L211.268293,14.5945946 L214.292683,14.5945946 L214.292683,16.2282282 C215.121951,15.1561562 216.536585,14.2882883 218,14.2882883 L218,17.4024024 C217.804878,17.3513514 217.512195,17.3513514 217.170732,17.3513514 C216.146341,17.3513514 214.829268,17.963964 214.341463,18.7297297 L214.341463,26.6936937 L211.268293,26.6936937 L211.268293,26.6936937 Z" id="Shape"></path>
                    <path d="M67,18.5 C67,13.4201183 70.6982968,10 75.5158151,10 C79.0194647,10 81.0145985,11.9615385 82.13382,14.0236686 L79.2141119,15.4822485 C78.5328467,14.1745562 77.1216545,13.0680473 75.4671533,13.0680473 C72.5474453,13.0680473 70.4549878,15.3816568 70.4549878,18.4497041 C70.4549878,21.5177515 72.5474453,23.8313609 75.4671533,23.8313609 C77.0729927,23.8313609 78.5328467,22.7751479 79.2141119,21.4171598 L82.13382,22.8757396 C81.0145985,24.9378698 78.9708029,26.8994083 75.5158151,26.8994083 C70.6982968,27 67,23.5295858 67,18.5 Z M84.080292,26.6982249 L84.080292,14.7781065 L87.0973236,14.7781065 L87.0973236,16.387574 C87.9245742,15.3313609 89.3357664,14.4763314 90.7956204,14.4763314 L90.7956204,17.5443787 C90.6009732,17.4940828 90.3090024,17.4940828 89.9683698,17.4940828 C88.946472,17.4940828 87.6326034,18.0976331 87.1459854,18.852071 L87.1459854,26.6982249 L84.080292,26.6982249 Z M91.9635036,20.7130178 C91.9635036,17.3431953 94.2506083,14.4763314 98.0462287,14.4763314 C101.841849,14.4763314 104.177616,17.3431953 104.177616,20.7130178 C104.177616,24.0828402 101.890511,27 98.0462287,27 C94.2506083,27 91.9635036,24.1331361 91.9635036,20.7130178 Z M101.014599,20.7130178 C101.014599,18.852071 99.9440389,17.2426036 98.0462287,17.2426036 C96.1484185,17.2426036 95.1265207,18.852071 95.1265207,20.7130178 C95.1265207,22.5739645 96.1970803,24.183432 98.0462287,24.183432 C99.9440389,24.2337278 101.014599,22.6242604 101.014599,20.7130178 Z M105.394161,25.1390533 L106.708029,22.8757396 C107.583942,23.7307692 109.238443,24.535503 110.698297,24.535503 C112.012165,24.535503 112.644769,24.0325444 112.644769,23.2781065 C112.644769,21.316568 105.832117,22.9260355 105.832117,18.2485207 C105.832117,16.2366864 107.486618,14.4763314 110.552311,14.4763314 C112.498783,14.4763314 114.055961,15.1804734 115.175182,16.0857988 L113.958637,18.2988166 C113.277372,17.5443787 111.963504,16.9408284 110.552311,16.9408284 C109.43309,16.9408284 108.751825,17.443787 108.751825,18.0976331 C108.751825,19.8579882 115.613139,18.3491124 115.613139,23.1775148 C115.613139,25.3905325 113.812652,27 110.600973,27 C108.557178,27 106.610706,26.295858 105.394161,25.1390533 Z M116.781022,25.1390533 L118.094891,22.8757396 C118.970803,23.7307692 120.625304,24.535503 122.085158,24.535503 C123.399027,24.535503 124.03163,24.0325444 124.03163,23.2781065 C124.03163,21.316568 117.218978,22.9260355 117.218978,18.2485207 C117.218978,16.2366864 118.873479,14.4763314 121.939173,14.4763314 C123.885645,14.4763314 125.442822,15.1804734 126.562044,16.0857988 L125.345499,18.2988166 C124.664234,17.5443787 123.350365,16.9408284 121.939173,16.9408284 C120.819951,16.9408284 120.138686,17.443787 120.138686,18.0976331 C120.138686,19.8579882 127,18.3491124 127,23.1775148 C127,25.3905325 125.199513,27 121.987835,27 C119.944039,27 117.997567,26.295858 116.781022,25.1390533 L116.781022,25.1390533 Z" id="Shape"></path>
                    <path d="M222.673927,26.3441109 L222.673927,13.443418 L218,13.443418 L218,10.4849885 L230.707239,10.4849885 L230.707239,13.443418 L226.081999,13.443418 L226.081999,26.3441109 L222.673927,26.3441109 Z M229.733504,20.5727483 C229.733504,17.2263279 232.216528,14.5588915 235.721973,14.5588915 C239.178732,14.5588915 241.515695,17.1293303 241.515695,20.8637413 L241.515695,21.591224 L232.946829,21.591224 C233.141576,22.9976905 234.310058,24.1616628 236.257527,24.1616628 C237.231262,24.1616628 238.594491,23.7736721 239.324792,23.0461894 L240.68802,25.034642 C239.519539,26.1016166 237.718129,26.6351039 235.91672,26.6351039 C232.362588,26.6351039 229.733504,24.3071594 229.733504,20.5727483 L229.733504,20.5727483 Z M235.721973,17.0323326 C233.82319,17.0323326 233.044202,18.3418014 232.898142,19.5057737 L238.594491,19.5057737 C238.497117,18.3903002 237.718129,17.0323326 235.721973,17.0323326 L235.721973,17.0323326 Z M242.684177,24.8406467 L243.998719,22.6581986 C244.87508,23.482679 246.579116,24.2586605 247.991031,24.2586605 C249.305573,24.2586605 249.938501,23.7736721 249.938501,23.0461894 C249.938501,21.1547344 243.122357,22.7066975 243.122357,18.1963048 C243.122357,16.256351 244.777707,14.5588915 247.844971,14.5588915 C249.792441,14.5588915 251.350416,15.2378753 252.470211,16.1108545 L251.253043,18.2448037 C250.571429,17.517321 249.256887,16.9353349 247.844971,16.9353349 C246.725176,16.9353349 246.043562,17.4203233 246.043562,18.0508083 C246.043562,19.7482679 252.908392,18.2933025 252.908392,22.9491917 C252.908392,25.0831409 251.106983,26.6351039 247.893658,26.6351039 C245.848815,26.6351039 243.901345,25.9561201 242.684177,24.8406467 Z M255.683536,23.482679 L255.683536,17.517321 L253.784753,17.517321 L253.784753,14.8983834 L255.683536,14.8983834 L255.683536,11.7459584 L258.702114,11.7459584 L258.702114,14.8983834 L261.039078,14.8983834 L261.039078,17.517321 L258.702114,17.517321 L258.702114,22.6581986 C258.702114,23.3856813 259.091608,23.9191686 259.773222,23.9191686 C260.211403,23.9191686 260.649584,23.7736721 260.844331,23.5796767 L261.477258,25.9076212 C261.039078,26.295612 260.211403,26.6351039 258.945548,26.6351039 C256.803331,26.6351039 255.683536,25.5681293 255.683536,23.482679 Z M262.840487,11.7944573 C262.840487,10.7759815 263.668161,10 264.641896,10 C265.664318,10 266.443306,10.7759815 266.443306,11.7944573 C266.443306,12.812933 265.615631,13.5889145 264.641896,13.5889145 C263.668161,13.6374134 262.840487,12.812933 262.840487,11.7944573 Z M263.132607,26.3441109 L263.132607,14.8498845 L266.151185,14.8498845 L266.151185,26.3441109 L263.132607,26.3441109 Z M276.959641,26.3441109 L276.959641,19.408776 C276.959641,17.8083141 276.131967,17.2748268 274.817425,17.2748268 C273.600256,17.2748268 272.723895,17.9538106 272.188341,18.5842956 L272.188341,26.3441109 L269.169763,26.3441109 L269.169763,14.8498845 L272.188341,14.8498845 L272.188341,16.3048499 C272.918642,15.4318707 274.379244,14.5588915 276.22934,14.5588915 C278.809737,14.5588915 280.026906,15.965358 280.026906,18.2448037 L280.026906,26.3441109 L276.959641,26.3441109 L276.959641,26.3441109 Z M282.80205,29.3025404 L284.165279,27.1200924 C285.090327,28.1385681 286.356182,28.5265589 287.768097,28.5265589 C289.2287,28.5265589 290.981422,27.8960739 290.981422,25.5681293 L290.981422,24.4526559 C290.056374,25.6166282 288.839206,26.2471132 287.378603,26.2471132 C284.506086,26.2471132 282.315183,24.2586605 282.315183,20.4272517 C282.315183,16.6443418 284.506086,14.5588915 287.378603,14.5588915 C288.741832,14.5588915 290.007687,15.1408776 290.981422,16.3048499 L290.981422,14.8498845 L294,14.8498845 L294,25.5681293 C294,29.9330254 290.591928,31 287.768097,31 C285.771941,31 284.213965,30.5635104 282.80205,29.3025404 Z M290.932735,22.2702079 L290.932735,18.5357968 C290.397181,17.8083141 289.326073,17.2263279 288.352338,17.2263279 C286.599616,17.2263279 285.431134,18.4387991 285.431134,20.3787529 C285.431134,22.3672055 286.648302,23.5311778 288.352338,23.5311778 C289.326073,23.5796767 290.397181,23.0461894 290.932735,22.2702079 Z" id="Shape"></path>
                </g>
                <g id="Grooveshark" transform="translate(0.000000, 5.000000)" fill="#100F0D">
                    <path d="M21.00336,0 C9.404304,0 0,9.404472 0,21.00336 C-4.207392e-06,32.60208 9.404304,42 21.00336,42 C32.6004,42 42,32.60208 42,21.00336 C42,9.405144 32.6004,1.69730896e-15 21.00336,0 Z M21.1176,5.174568 C26.37096,5.174568 31.37064,7.872648 34.25856,12.259296 C34.98264,13.358856 35.55888,14.54964 35.9856,15.791328 L35.98056,15.791328 C36.11664,16.186128 36.24432,16.584288 36.34848,16.987488 C36.67944,18.296208 36.83904,19.641888 36.83064,20.992608 C36.81048,23.532768 35.99568,26.336688 32.80536,24.991008 C31.2984,24.355968 30.04176,23.062368 29.106,21.753648 C28.0308,20.250048 26.9304,18.776688 25.72584,17.375568 C24.59352,16.060968 23.38728,14.799456 22.07856,13.660584 C20.7732,12.523056 19.35528,11.441472 17.7912,10.690176 C16.741704,10.184496 15.660624,9.80364 14.542248,9.483096 C14.415576,9.447816 14.071176,9.295944 13.970208,9.45168 C13.908216,9.547944 13.95744,9.727872 13.970208,9.83472 C13.99776,10.06656 14.02548,10.296384 14.054208,10.527552 C14.388528,13.302072 14.517048,16.230312 13.655376,18.924528 C13.192872,20.376048 12.349512,21.706608 11.225592,22.734768 C10.29336,23.586528 8.962464,24.448368 7.641144,24.387888 C7.39788,24.377808 7.153776,24.330768 6.911688,24.251808 C5.496792,23.774688 5.412624,22.249248 5.4054,20.992608 C5.393976,19.641888 5.559288,18.296208 5.893608,16.987488 C5.994408,16.584288 6.121584,16.186128 6.255648,15.791328 C7.80192,11.310264 11.377128,7.662984 15.87012,6.071856 C17.55264,5.475624 19.33344,5.174568 21.1176,5.174568 Z" id="Shark"></path>
                    <path d="M197.596314,4 L196.622981,4.81141439 L191.504589,33.4665012 L192.192635,34.2721257 L197.025739,34.2721257 L197.982291,33.4665012 L200.231027,20.872622 C201.170797,19.5392887 203.755165,17.4416873 205.013786,17.4416873 C206.003901,17.4416873 206.322752,17.9677419 206.322752,19.0578991 C206.322752,19.5409429 206.289188,20.1050455 206.171717,20.7121588 L203.872636,33.4665012 L204.560682,34.2721257 L209.393786,34.2721257 L210.350338,33.4665012 L212.76689,20.108354 C212.96827,19.0595533 213.085741,18.0454921 213.085741,17.1571547 C213.085741,14.4544251 211.608959,12.6403639 208.789648,12.6403639 C205.097694,12.6403639 201.623901,15.5839537 200.26459,17.1571547 L201.170797,15.6271299 L203.100682,4.81141439 L202.429418,4 L197.596314,4 L197.596314,4 Z M260.107814,4 L259.151263,4.81141439 L254.049653,33.4665012 L254.737699,34.2721257 L259.570803,34.2721257 L260.510573,33.4665012 L262.641838,21.6782465 C263.749424,20.146402 266.854022,17.3589744 268.783907,17.3589744 C269.43839,17.3589744 269.606206,17.9660877 269.606206,18.6509512 C269.606206,20.3465674 266.988275,21.8039702 264.286436,22.2473118 L263.380229,22.9338296 L263.044596,24.6294458 L263.262757,25.554177 L268.129424,34.4375517 L268.985287,34.7998346 L273.700919,33.3837883 L274.154023,32.4160463 L269.186666,24.2622002 C272.425517,23.2117452 276,20.6277916 276,16.7535153 C276,14.775517 274.355402,12.6403639 272.056321,12.6403639 C267.55885,12.6403639 263.900459,16.7932175 262.641838,18.2473118 L263.4977,16.7171216 L265.628964,4.81141439 L264.940918,4 L260.107814,4 L260.107814,4 Z M63.9307832,5.45740281 C52.6283683,5.45740281 48,14.2550868 48,25.4342432 C48,31.4094293 51.8899774,34.8403639 59.0976793,34.8403639 C62.4976336,34.8403639 66.4681628,34.0744417 68.3913354,33.5897436 L69.3361401,32.6997519 L71.7526921,19.1348222 L71.0965311,18.3291977 L62.6570589,18.3291977 L61.7189669,19.1348222 L61.0628059,22.7311828 L61.7189669,23.5384615 L64.6641396,23.5384615 L63.6840935,29.108354 C62.8248751,29.3101737 60.938622,29.4292804 60.1616334,29.4292804 C56.4344376,29.4292804 55.1657478,27.8941274 55.1657478,24.261373 C55.1657478,17.7220844 57.5403458,10.8618693 63.2326682,10.8618693 C66.3439789,10.8618693 70.0711746,11.6665012 71.2593127,12.0297767 L72.2443932,11.264847 L72.9005542,7.63209264 L72.2443932,6.86732837 C71.0562552,6.38444996 67.2904617,5.45657568 63.9307832,5.45657568 L63.9307832,5.45740281 Z M79.7256354,12.4335815 L75.0603476,13.3224152 L74.2363705,14.293962 C74.4427843,15.5877585 74.6475199,17.5210918 74.6877958,19.1356493 L72.1504162,33.4665012 L72.8065772,34.2721257 L77.6396811,34.2721257 L78.5828077,33.5078577 L80.75267,21.5591398 C81.5716126,20.1066998 83.0467162,17.6418528 84.2751301,17.6418528 C84.9715669,17.6418528 86.0741188,18.8560794 86.3627625,19.2597188 L87.4686706,19.0992556 L90.6236135,14.293962 L90.2946939,13.3224152 C89.680487,13.0812242 87.920096,12.5162945 86.8964177,12.5162945 C84.0284404,12.5162945 82.3083253,14.8612076 81.3668769,16.5153019 L80.9574056,17.2398677 C80.9574056,15.5025641 80.7912677,14.1331679 80.6268079,13.0433416 L79.7256354,12.4335815 Z M245.193997,12.4335815 L240.528709,13.3224152 L239.70641,14.293962 C239.907789,15.5877585 240.12595,17.5210918 240.159514,19.1356493 L237.62549,33.4665012 L238.279973,34.2721257 L243.113077,34.2721257 L244.052847,33.5078577 L246.217675,21.5591398 C247.039974,20.1066998 248.516756,17.6418528 249.741813,17.6418528 C250.446641,17.6418528 251.554227,18.8560794 251.839515,19.2597188 L252.947101,19.0992556 L256.085262,14.293962 L255.766412,13.3224152 C255.145492,13.0812242 253.383423,12.5162945 252.359745,12.5162945 C249.490089,12.5162945 247.778365,14.8612076 246.838595,16.5153019 L246.419054,17.2398677 C246.419054,15.5025641 246.26802,14.1331679 246.100204,13.0433416 L245.193997,12.4335815 L245.193997,12.4335815 Z M100.286465,12.6403639 C91.6842113,12.6403639 87.4686706,19.0148883 87.4686706,26.6443342 C87.4686706,31.2845327 90.6622112,34.7998346 96.6431773,34.7998346 C105.242075,34.7998346 109.501248,28.4640199 109.501248,20.7948718 C109.501248,16.2335815 106.388259,12.6403639 100.286465,12.6403639 Z M123.382996,12.6403639 C114.782421,12.6403639 110.565202,19.0148883 110.565202,26.6443342 C110.565202,31.2845327 113.758742,34.7998346 119.739708,34.7998346 C128.340284,34.7998346 132.599457,28.4640199 132.599457,20.7948718 C132.599457,16.2335815 129.48479,12.6403639 123.382996,12.6403639 Z M139.686331,12.6403639 L134.606537,13.4878412 L133.910101,14.4127378 L138.17263,33.5905707 L138.827113,34.2721257 L144.232469,34.2721257 L145.212516,33.4665012 L156.682747,14.4127378 L156.273275,13.4464847 L151.27739,12.6403639 L150.208401,13.2863524 L142.675136,27.2084367 L140.589182,13.2449959 L139.686331,12.6403639 Z M166.144219,12.6403639 C157.545321,12.6403639 154.55316,20.2258065 154.55316,27.2911497 C154.55316,31.9710505 157.830609,34.7998346 162.417023,34.7998346 C165.775023,34.7998346 168.267093,34.2307692 169.945254,33.7080232 L170.851461,32.8610422 L171.47238,29.5128205 L170.683645,28.9023987 C168.97192,29.4284533 165.570288,29.9925558 163.932402,29.9925558 C161.967276,29.9925558 160.980517,28.9040529 160.980517,26.5616212 C160.980517,26.0785773 161.022471,25.7593052 161.022471,25.4350703 C169.659966,25.4350703 173.805024,23.2133995 173.805024,18.9751861 C173.805024,14.8177006 170.817897,12.6403639 166.144219,12.6403639 L166.144219,12.6403639 Z M185.099048,12.6403639 C180.265944,12.6403639 175.885944,14.4588916 175.885944,19.9065343 C175.885944,25.4780811 183.420887,25.757651 183.420887,28.2208437 C183.420887,29.3110008 182.447554,30.0752688 181.05468,30.0752688 C179.326174,30.0752688 176.590772,29.5111663 175.281806,29.1869313 L174.207783,29.7510339 L173.637208,33.0215054 L174.241346,33.8271299 C176.171231,34.4739454 178.436749,34.7998346 180.685485,34.7998346 C185.518589,34.7998346 190.066405,32.9801489 190.066405,27.8122415 C190.066405,21.9197684 182.397209,22.2076096 182.397209,19.2183623 C182.397209,18.1282051 183.471232,17.3589744 184.864106,17.3589744 C186.542267,17.3589744 188.589623,17.8072787 189.898589,18.2109181 L190.838359,17.4416873 L191.408934,14.293962 L190.838359,13.5239041 C188.992382,12.8395368 187.280658,12.6403639 185.099048,12.6403639 L185.099048,12.6403639 Z M227.506179,12.6403639 C218.695833,12.6403639 214.8025,19.1356493 214.8025,27.6104218 C214.8025,31.2448304 216.900201,34.7998346 220.055144,34.7998346 C223.008707,34.7998346 226.079742,32.4557486 227.590087,30.7220844 C227.62365,32.0934657 227.757903,33.2663358 227.959283,34.3961952 L228.86549,35 L233.564341,34.1116625 L234.353076,33.1406121 C234.134915,31.8486352 233.933536,29.9528536 233.899973,28.2985939 L236.316525,15.0587262 L235.695605,14.3353184 C233.849628,13.5692308 230.862501,12.6403639 227.506179,12.6403639 L227.506179,12.6403639 Z M165.939483,16.9189413 C167.897897,16.9189413 168.317437,17.9677419 168.317437,18.9751861 C168.317437,20.7121588 165.979759,21.5177833 161.515851,21.5177833 C162.130057,18.6509512 163.892127,16.9189413 165.939483,16.9189413 L165.939483,16.9189413 Z M226.734225,17.2812242 C227.791466,17.2812242 228.529857,17.4019851 229.301811,17.6832093 L227.62365,27.006617 C226.599972,28.2985939 224.60296,29.9925558 222.924799,29.9925558 C221.901121,29.9925558 221.448017,28.5401158 221.448017,26.8461538 C221.448017,21.5177833 223.377903,17.2812242 226.734225,17.2812242 Z M99.5933845,17.4416873 C101.967982,17.4416873 102.907753,18.7336642 102.907753,21.1157982 C102.907753,26.1199338 100.778166,29.9925558 97.2976601,29.9925558 C95.0036139,29.9925558 94.0218897,28.700579 94.0218897,26.318445 C94.0218897,21.3143093 96.27566,17.4416873 99.5933845,17.4416873 L99.5933845,17.4416873 Z M122.691594,17.4416873 C125.066192,17.4416873 126.004284,18.7336642 126.004284,21.1157982 C126.004284,26.1199338 123.876375,29.9925558 120.395869,29.9925558 C118.101823,29.9925558 117.118421,28.700579 117.118421,26.318445 C117.118421,21.3143093 119.373869,17.4416873 122.691594,17.4416873 L122.691594,17.4416873 Z"></path>
                </g>
            </g>
        </g>
    </g>
</svg>